<svg height="512" viewBox="0 0 44 60" width="512" xmlns="http://www.w3.org/2000/svg"><g id="037---Kite-Base"><path id="Shape" d="m22.67.26c-.3806191-.34351854-.9593809-.34351854-1.34 0l-21 19c-.3385885.3077862-.42507674.8061232-.21 1.21l21 39c.1745653.3234232.5124736.5250263.88.5250263s.7054347-.2016031.88-.5250263l21-39c.2150767-.4038768.1285885-.9022138-.21-1.21zm-1.67 54.74-18.33-34h18.33zm-17.4-36 17.4-15.75v2.75c0 .55228475.4477153 1 1 1s1-.44771525 1-1v-2.75l17.4 15.75zm19.4 36v-34h18.33z"/><path id="Shape" d="m22 14c-.5522847 0-1 .4477153-1 1v1c0 .5522847.4477153 1 1 1s1-.4477153 1-1v-1c0-.5522847-.4477153-1-1-1z"/><path id="Shape" d="m22 9c-.5522847 0-1 .44771525-1 1v1c0 .5522847.4477153 1 1 1s1-.4477153 1-1v-1c0-.55228475-.4477153-1-1-1z"/></g></svg>