<?xml version="1.0" encoding="utf-8"?>
<!-- Generator: Adobe Illustrator 23.1.0, SVG Export Plug-In . SVG Version: 6.00 Build 0)  -->
<svg version="1.1" id="LINE" xmlns="http://www.w3.org/2000/svg" xmlns:xlink="http://www.w3.org/1999/xlink" x="0px" y="0px"
	 viewBox="0 0 512 512" style="enable-background:new 0 0 512 512;" xml:space="preserve">
<style type="text/css">
	.st0{fill:#EFEFEF;}
	.st1{fill:#A4AFC1;}
	.st2{fill:#F3F3F1;}
	.st3{fill:#1FB890;}
	.st4{fill:#D5DBE1;}
	.st5{fill:#107A5C;}
</style>
<path class="st0" d="M119.1,452.7c98.4,0,165.9,51,213.3,51s147-27.2,147-245.3S345.5,8.3,293.4,8.3
	C49.2,8.3-55.1,452.7,119.1,452.7L119.1,452.7z"/>
<g>
	<path class="st1" d="M161.6,57.5l20.1-20.1l10.1,10.1l-20.1,20.1L161.6,57.5z"/>
	<path class="st1" d="M103.7,115.3l20.1-20.1l10.1,10.1l-20.1,20.1L103.7,115.3z"/>
	<path class="st1" d="M103.7,44.9l10.1-10.1L133.9,55L123.8,65L103.7,44.9z"/>
	<path class="st1" d="M434.4,468.7c-11.8,0-21.3-9.6-21.3-21.3c0-11.8,9.6-21.3,21.3-21.3s21.3,9.6,21.3,21.3
		C455.7,459.1,446.2,468.7,434.4,468.7L434.4,468.7z M434.4,440.2c-3.9,0-7.1,3.2-7.1,7.1s3.2,7.1,7.1,7.1s7.1-3.2,7.1-7.1
		S438.3,440.2,434.4,440.2z"/>
</g>
<path class="st2" d="M161.4,209.8l-33.4,26.7C107.8,252.6,96,277.2,96,303.1V416h120.9v-28.4c19.6,0,35.6-15.9,35.6-35.6v-7.2
	L161.4,209.8z"/>
<path class="st3" d="M195.6,344.9h177.8c7.8,0,14.2-6.4,14.2-14.2V110.2c0-7.8-6.4-14.2-14.2-14.2h-192c-7.8,0-14.2,6.4-14.2,14.2
	V256L195.6,344.9z"/>
<path class="st4" d="M156.5,236.4l14.9-11.9l-10-14.8l-33.4,26.7C107.8,252.6,96,277.2,96,303.1V416h28.4V303.1
	C124.4,277.2,136.2,252.6,156.5,236.4z"/>
<path class="st5" d="M195.6,110.2c0-7.8,6.4-14.2,14.2-14.2h-28.4c-7.8,0-14.2,6.4-14.2,14.2V256l28.4,88.9H224L195.6,256V110.2z"/>
<path class="st2" d="M138.7,288l76.3-70.5c2.8-2.6,7.2-2.5,9.9,0.2c13.3,13.3,13.3,34.8,0,48.1l-25.7,25.7c8.6,17.3,6.2,38-6.1,52.9
	l-11.6,14.7L138.7,288z"/>
<path d="M189.7,365.7L173,352.5l11.6-14.7c9.8-11.8,11.7-28,5-41.5c-2.1-4.1-1.3-9.1,2-12.3l25.7-25.7c8.3-8.3,9-21.3,2.2-30.4
	l-73.6,68l-14.5-15.7l76.3-70.5c7-6.5,17.8-6.3,24.6,0.5c17.4,17.4,17.4,45.8,0,63.2L211.7,294c6.7,19.4,2.8,41.1-10.5,57.2
	L189.7,365.7z"/>
<path d="M216.9,426.7H96c-5.9,0-10.7-4.8-10.7-10.7V303.1c0-29.3,13.1-56.7,36.1-75l33.4-26.7l13.3,16.7l-33.4,26.7
	c-17.8,14.3-28.1,35.5-28.1,58.3v102.2h99.6v-17.7c0-5.9,4.8-10.7,10.7-10.7c13.7,0,24.9-11.2,24.9-24.9v-7.2h21.3v7.2
	c0,21.8-15.2,40.1-35.6,45v19C227.6,421.9,222.8,426.7,216.9,426.7L216.9,426.7z"/>
<path d="M177.8,256h-21.3V110.2c0-13.7,11.2-24.9,24.9-24.9h192c13.7,0,24.9,11.2,24.9,24.9v57.3h-21.3v-57.3c0-1.9-1.6-3.6-3.6-3.6
	h-192c-1.9,0-3.6,1.6-3.6,3.6V256z"/>
<path d="M373.3,355.6H195.6v-21.3h177.8c1.9,0,3.6-1.6,3.6-3.6v-115h21.3v115C398.2,344.4,387.1,355.6,373.3,355.6z"/>
</svg>
