<?xml version="1.0" encoding="utf-8"?>
<!-- Generator: Adobe Illustrator 23.1.0, SVG Export Plug-In . SVG Version: 6.00 Build 0)  -->
<svg version="1.1" id="LINE" xmlns="http://www.w3.org/2000/svg" xmlns:xlink="http://www.w3.org/1999/xlink" x="0px" y="0px"
	 viewBox="0 0 512 512" style="enable-background:new 0 0 512 512;" xml:space="preserve">
<style type="text/css">
	.st0{fill:#EFEFEF;}
	.st1{fill:#A4AFC1;}
	.st2{fill:#1FB890;}
	.st3{fill:#107A5C;}
	.st4{fill:#F3F3F1;}
	.st5{fill:#D5DBE1;}
	.st6{fill:#333333;}
</style>
<path class="st0" d="M496.4,289.5c-53.8-82.4-48.1-166.8-74-206.5C396.5,43.3,319.2-25.1,136.6,94.1S0.5,343,29,386.7
	C162.6,591.1,591.7,435.4,496.4,289.5z"/>
<g>
	<path class="st1" d="M300,466.5l20.1-20.1l10.1,10.1l-20.1,20.1L300,466.5z"/>
	<path class="st1" d="M357.8,408.7l20.1-20.1l10.1,10.1l-20.1,20.1L357.8,408.7z"/>
	<path class="st1" d="M357.8,459l10.1-10.1L388,469L378,479.1L357.8,459z"/>
	<path class="st1" d="M70.2,97.6c-11.8,0-21.3-9.6-21.3-21.3s9.6-21.3,21.3-21.3s21.3,9.6,21.3,21.3S82,97.6,70.2,97.6z M70.2,69.2
		c-3.9,0-7.1,3.2-7.1,7.1c0,3.9,3.2,7.1,7.1,7.1c3.9,0,7.1-3.2,7.1-7.1C77.4,72.3,74.2,69.2,70.2,69.2z"/>
</g>
<path class="st2" d="M287.8,297.1l42.8,99.5c3.9,9.1-2.8,19.4-12.7,19.4h-208c-10,0-16.6-10.1-12.7-19.3l27.3-63.9h0.1l41.6-97
	l34.8-81.2c2.1-4.8,6.1-7.6,10.7-8.2L287.8,297.1z"/>
<circle class="st2" cx="334.2" cy="177.8" r="81.8"/>
<path class="st2" d="M295.1,174.2l39.1-35.6l39.1,35.6H295.1z"/>
<path class="st3" d="M125.6,396.7l27.3-63.9h0.1l41.6-97l28.5-66.6l-11.5-22.8c-4.6,0.6-8.6,3.3-10.7,8.2l-34.8,81.2l-41.6,97h-0.1
	l-27.3,63.9c-3.9,9.1,2.8,19.3,12.7,19.3h28.4C128.3,416,121.7,405.9,125.6,396.7L125.6,396.7z"/>
<path class="st4" d="M254.6,231.1h-86.5l-43.7,99.6h180.7L254.6,231.1z"/>
<path class="st5" d="M168.1,231.1l-43.7,99.6h28.4l43.7-99.6H168.1z"/>
<path class="st3" d="M280.9,177.8c0-40.3,29.2-73.7,67.6-80.5c-4.6-0.8-9.4-1.3-14.2-1.3c-45.2,0-81.8,36.6-81.8,81.8
	s36.6,81.8,81.8,81.8c4.9,0,9.6-0.5,14.2-1.3C310.1,251.5,280.9,218.1,280.9,177.8z"/>
<path class="st6" d="M317.9,426.7h-208c-8.3,0-15.9-4.1-20.5-11c-4.5-6.9-5.3-15.5-2.1-23.1l27.3-63.9c0.2-0.5,0.5-1,0.8-1.5
	l75.7-176.7c3.5-8.1,10.7-13.5,19.2-14.6l2.6,21.2c-0.7,0.1-1.5,0.4-2.1,1.8l-76.4,178.2c-0.2,0.5-0.5,1-0.8,1.5l-26.7,62.4
	c-0.6,1.4-0.1,2.5,0.3,3c0.4,0.6,1.2,1.4,2.7,1.4h208c1.4,0,2.2-0.8,2.6-1.4c0.4-0.6,0.9-1.7,0.3-3.2L278,301.3l19.6-8.4l42.8,99.5
	c3.3,7.7,2.5,16.4-2.1,23.3C333.7,422.6,326.1,426.7,317.9,426.7L317.9,426.7z"/>
<path class="st6" d="M168.1,220.4h51.5v21.3h-51.5V220.4z"/>
<path class="st6" d="M125.4,320h176.8v21.3H125.4V320z"/>
<path class="st6" d="M334.2,270.2c-51,0-92.4-41.5-92.4-92.4s41.5-92.4,92.4-92.4s92.4,41.5,92.4,92.4S385.2,270.2,334.2,270.2z
	 M334.2,106.7c-39.2,0-71.1,31.9-71.1,71.1s31.9,71.1,71.1,71.1s71.1-31.9,71.1-71.1S373.4,106.7,334.2,106.7z"/>
<path class="st6" d="M366.2,182.1l-31.9-29l-31.9,29l-14.4-15.8l39.1-35.6c4.1-3.7,10.3-3.7,14.4,0l39.1,35.6L366.2,182.1z"/>
<path class="st6" d="M323.6,138.7h21.3v78.2h-21.3V138.7z"/>
</svg>
