<?xml version="1.0" encoding="utf-8"?>
<!-- Generator: Adobe Illustrator 23.1.0, SVG Export Plug-In . SVG Version: 6.00 Build 0)  -->
<svg version="1.1" id="LINE" xmlns="http://www.w3.org/2000/svg" xmlns:xlink="http://www.w3.org/1999/xlink" x="0px" y="0px"
	 viewBox="0 0 512 512" style="enable-background:new 0 0 512 512;" xml:space="preserve">
<style type="text/css">
	.st0{fill:#EFEFEF;}
	.st1{fill:#A4AFC1;}
	.st2{fill:#33CC99;}
	.st3{fill:#F3F3F1;}
	.st4{fill:#28AF7E;}
	.st5{fill:#333333;}
</style>
<g>
	<path class="st0" d="M115.4,79.1C89.7,174.1,22.9,226,10.5,271.8s-12,149,198.5,205.9c210.5,56.9,276.4-64,290-114.4
		C562.7,127.6,160.9-89.1,115.4,79.1L115.4,79.1z"/>
	<path class="st1" d="M125,73.4l20.1-20.1l10.1,10.1l-20.1,20.1L125,73.4z"/>
	<path class="st1" d="M67.2,131.2l20.1-20.1l10.1,10.1l-20.1,20.1L67.2,131.2z"/>
	<path class="st1" d="M67.2,60.8l10.1-10.1l20.1,20.1L87.3,80.9L67.2,60.8z"/>
	<path class="st1" d="M125,118.6l10.1-10.1l20.1,20.1l-10.1,10.1L125,118.6z"/>
	<path class="st1" d="M460.1,199.4c-11.8,0-21.3-9.6-21.3-21.3c0-11.8,9.6-21.3,21.3-21.3s21.3,9.6,21.3,21.3
		C481.4,189.8,471.8,199.4,460.1,199.4z M460.1,171c-3.9,0-7.1,3.2-7.1,7.1s3.2,7.1,7.1,7.1s7.1-3.2,7.1-7.1S464,171,460.1,171z"/>
	<g>
		<circle class="st2" cx="128" cy="348.4" r="10.7"/>
		<path class="st2" d="M160,425.9c0-17.3-9.6-31.3-21.3-31.3h-21.3c-11.8,0-21.3,14-21.3,31.3H160z"/>
		<circle class="st2" cx="256" cy="348.4" r="10.7"/>
		<path class="st2" d="M288,425.9c0-17.3-9.6-31.3-21.3-31.3h-21.3c-11.8,0-21.3,14-21.3,31.3H288z"/>
		<circle class="st2" cx="384" cy="348.4" r="10.7"/>
		<path class="st2" d="M416,425.9c0-17.3-9.6-31.3-21.3-31.3h-21.3c-11.8,0-21.3,14-21.3,31.3H416z"/>
	</g>
	<circle class="st3" cx="256" cy="113.8" r="17.8"/>
	<path class="st2" d="M209.8,202.7v-7.1c0-15.7,12.7-28.4,28.4-28.4h35.6c15.7,0,28.4,12.7,28.4,28.4v7.1H209.8z"/>
	<path class="st4" d="M142.2,395.2c-1.2-0.3-2.3-0.5-3.6-0.5h-21.3c-11.8,0-21.3,14-21.3,31.3h28.4
		C124.4,410.5,132.1,397.7,142.2,395.2L142.2,395.2z"/>
	<path class="st4" d="M270.2,395.2c-1.2-0.3-2.3-0.5-3.6-0.5h-21.3c-11.8,0-21.3,14-21.3,31.3h28.4
		C252.4,410.5,260.1,397.7,270.2,395.2L270.2,395.2z"/>
	<path class="st4" d="M398.2,395.2c-1.2-0.3-2.3-0.5-3.6-0.5h-21.3c-11.8,0-21.3,14-21.3,31.3h28.4
		C380.4,410.5,388.1,397.7,398.2,395.2L398.2,395.2z"/>
	<path class="st4" d="M266.7,167.1h-28.4c-15.7,0-28.4,12.7-28.4,28.4v7.1h28.4v-7.1C238.2,179.8,251,167.1,266.7,167.1z"/>
	<path class="st5" d="M394.7,298.7h-21.3v-21.3H138.7v21.3h-21.3v-32c0-5.9,4.8-10.7,10.7-10.7h256c5.9,0,10.7,4.8,10.7,10.7V298.7z
		"/>
	<path class="st5" d="M245.3,224h21.3v78.2h-21.3V224z"/>
	<path class="st5" d="M128,369.8c-11.8,0-21.3-9.6-21.3-21.3s9.6-21.3,21.3-21.3c11.8,0,21.3,9.6,21.3,21.3S139.8,369.8,128,369.8z
		 M128,348.4L128,348.4l10.7,0L128,348.4z"/>
	<path class="st5" d="M170.7,426.7h-21.3V416c0-5.9-4.8-10.7-10.7-10.7h-21.3c-5.9,0-10.7,4.8-10.7,10.7v10.7H85.3V416
		c0-17.6,14.4-32,32-32h21.3c17.6,0,32,14.4,32,32V426.7z"/>
	<path class="st5" d="M256,369.8c-11.8,0-21.3-9.6-21.3-21.3s9.6-21.3,21.3-21.3s21.3,9.6,21.3,21.3S267.8,369.8,256,369.8z
		 M256,348.4L256,348.4l10.7,0L256,348.4z"/>
	<path class="st5" d="M298.7,426.7h-21.3V416c0-5.9-4.8-10.7-10.7-10.7h-21.3c-5.9,0-10.7,4.8-10.7,10.7v10.7h-21.3V416
		c0-17.6,14.4-32,32-32h21.3c17.6,0,32,14.4,32,32V426.7z"/>
	<path class="st5" d="M384,369.8c-11.8,0-21.3-9.6-21.3-21.3s9.6-21.3,21.3-21.3s21.3,9.6,21.3,21.3S395.8,369.8,384,369.8z
		 M384,348.4L384,348.4l10.7,0L384,348.4z"/>
	<path class="st5" d="M426.7,426.7h-21.3V416c0-5.9-4.8-10.7-10.7-10.7h-21.3c-5.9,0-10.7,4.8-10.7,10.7v10.7h-21.3V416
		c0-17.6,14.4-32,32-32h21.3c17.6,0,32,14.4,32,32V426.7z"/>
	<path class="st5" d="M256,142.2c-15.7,0-28.4-12.8-28.4-28.4s12.8-28.4,28.4-28.4s28.4,12.8,28.4,28.4S271.7,142.2,256,142.2z
		 M256,106.7c-3.9,0-7.1,3.2-7.1,7.1c0,3.9,3.2,7.1,7.1,7.1c3.9,0,7.1-3.2,7.1-7.1C263.1,109.9,259.9,106.7,256,106.7z"/>
	<path class="st5" d="M312.9,202.7h-21.3v-7.1c0-9.8-8-17.8-17.8-17.8h-35.6c-9.8,0-17.8,8-17.8,17.8v7.1h-21.3v-7.1
		c0-21.6,17.5-39.1,39.1-39.1h35.6c21.6,0,39.1,17.5,39.1,39.1V202.7z"/>
</g>
</svg>
