<?xml version="1.0" encoding="utf-8"?>
<!-- Generator: Adobe Illustrator 23.1.0, SVG Export Plug-In . SVG Version: 6.00 Build 0)  -->
<svg version="1.1" id="LINE" xmlns="http://www.w3.org/2000/svg" xmlns:xlink="http://www.w3.org/1999/xlink" x="0px" y="0px"
	 viewBox="0 0 512 512" style="enable-background:new 0 0 512 512;" xml:space="preserve">
<style type="text/css">
	.st0{fill:#EFEFEF;}
	.st1{fill:#A4AFC1;}
	.st2{fill:#1FB890;}
	.st3{fill:#F3F3F1;}
	.st4{fill:#107A5C;}
	.st5{fill:#00B871;}
	.st6{fill:#D5DBE1;}
	.st7{fill:#333333;}
</style>
<path class="st0" d="M389.9,55.7c-98.3,1.8-166.9-47.9-214.2-47s-146.4,30-142.4,248s138.6,247.5,190.7,246.6
	C468.2,498.7,564.1,52.4,389.9,55.7z"/>
<g>
	<path class="st1" d="M95.6,133.9l20.1-20.1l10.1,10.1L105.6,144L95.6,133.9z"/>
	<path class="st1" d="M37.7,191.7l20.1-20.1l10.1,10.1l-20.1,20.1L37.7,191.7z"/>
	<path class="st1" d="M37.8,121.3l10.1-10.1l20.1,20.1l-10.1,10.1L37.8,121.3z"/>
	<path class="st1" d="M374.4,458.4c-11.8,0-21.3-9.6-21.3-21.3c0-11.8,9.6-21.3,21.3-21.3s21.3,9.6,21.3,21.3
		C395.7,448.9,386.1,458.4,374.4,458.4z M374.4,430c-3.9,0-7.1,3.2-7.1,7.1c0,3.9,3.2,7.1,7.1,7.1s7.1-3.2,7.1-7.1
		C381.5,433.2,378.3,430,374.4,430z"/>
</g>
<path class="st2" d="M302.8,259.8l-40.7-40.7l-27.9-27.9l-7.8-7.8c-7.6-7.6-19.2-10.1-29.3-6l-65.5,27.2v85.6h7.1
	c17.9,0,35.2,6.7,48.5,18.7l31.5,28.6c7.4,7.2,19.2,7.1,26.5-0.2l0.2-0.2c7.4-7.4,7.4-19.3,0-26.7l3.3,3.3c7.4,7.4,19.3,7.4,26.7,0
	s7.4-19.3,0-26.7l-13.9-13.9h0l13.9,13.9c7.4,7.4,19.3,7.4,26.7,0l0.6-0.6C310,279.2,310,267.2,302.8,259.8L302.8,259.8z"/>
<path class="st3" d="M380.4,200l-77.1-31.5c-7.2-3-15.4-2.7-22.4,0.8l-47,23.5c-11.1,5.5-13.5,20.3-4.7,29c5.5,5.5,14,6.9,21,3.4
	l41.8-21l-21.8,23l32.7,32.7v26.7l31.5,8.3l20.6-4.6l25.6-17.1L380.4,200z"/>
<path class="st3" d="M380.4,181.3H416v120.9h-35.6V181.3z"/>
<path class="st4" d="M96,181.3h35.6v120.9H96V181.3z"/>
<path class="st5" d="M273.8,310.5c0.9,0.9,1.3,1.9,1.9,2.9c0.2-0.2,0.2-0.4,0.4-0.6L273.8,310.5z"/>
<path class="st4" d="M215.6,309c-13.3-12-30.5-18.7-48.5-18.7H160v-85.6l60.9-25.2c-7.1-4.2-15.9-5.1-23.8-1.9l-65.5,27.2v85.6h7.1
	c17.9,0,35.2,6.7,48.5,18.7l31.5,28.6c7.4,7.2,19.2,7.1,26.5-0.2l0.2-0.2c0.2-0.2,0.3-0.5,0.5-0.7L215.6,309z"/>
<path class="st5" d="M290,273.2L290,273.2l13,13h0L290,273.2z"/>
<path class="st6" d="M303.3,168.4c-7.2-3-15.4-2.7-22.4,0.8l-1.8,0.9l73,29.9v73.2l-25.6,17.1l-5.2,1.2l13.1,3.4l20.6-4.6l25.6-17.1
	V200L303.3,168.4z"/>
<path class="st7" d="M288.6,303.2c-7.5,0-15-2.9-20.7-8.6L254,280.7l15.1-15.1l13.9,13.9c3.2,3.2,8.4,3.2,11.6,0
	c3.7-3.8,3.7-9.1,0.5-12.3l-40.6-40.6l15.1-15.1l40.7,40.7c11.3,11.6,11.3,30.3,0.1,41.8C304.2,300.2,296.4,303.2,288.6,303.2
	L288.6,303.2z"/>
<path class="st7" d="M127.5,194.9l27.4-11.3l8.2,19.7l-27.4,11.3L127.5,194.9z"/>
<path class="st7" d="M226.7,198.8l-7.8-7.8c-4.7-4.7-11.7-6.2-17.8-3.7l-16.8,6.9l-8.2-19.7l16.9-7c14.1-5.7,30.2-2.5,41,8.3
	l7.8,7.8L226.7,198.8z"/>
<path class="st7" d="M242,237.8c-7.5,0-14.8-2.9-20.4-8.5c-6.6-6.6-9.6-15.7-8.1-25c1.5-9.2,7.2-17,15.5-21.1l47-23.5
	c9.8-4.9,21.2-5.3,31.3-1.1l77.1,31.5l-8.1,19.8l-77.1-31.6c-4.4-1.9-9.4-1.7-13.6,0.4l-47,23.5c-2.2,1.1-3.6,3.1-4,5.5
	c-0.4,2.4,0.4,4.8,2.1,6.5c2.3,2.3,5.8,2.8,8.6,1.4l41.8-21l9.6,19.1l-41.8,21C250.8,236.8,246.4,237.8,242,237.8L242,237.8z"/>
<path class="st7" d="M262.1,330.1c-7.9,0-15.3-3.1-20.9-8.7L223.8,304l15.1-15.1l17.4,17.4c3.1,3.1,8.5,3.1,11.6,0
	c1.6-1.6,2.4-3.6,2.4-5.8c0-2.2-0.9-4.3-2.4-5.8L254,280.7l15.1-15.1l13.9,13.9c5.6,5.6,8.7,13,8.7,20.9c0,7.9-3.1,15.3-8.7,20.9
	C277.4,327,270,330.1,262.1,330.1C262.1,330.1,262.1,330.1,262.1,330.1L262.1,330.1z"/>
<path class="st7" d="M231.7,353.5c-7.4,0-14.8-2.8-20.5-8.3L180,316.9c-11.3-10.3-26-15.9-41.3-15.9h-7.1v-21.3h7.1
	c20.6,0,40.3,7.6,55.6,21.5l31.5,28.6c3.5,3.4,8.7,3.4,11.8,0.2c1.7-1.7,2.6-3.8,2.6-6c0-2.2-0.9-4.3-2.4-5.8l-13.9-13.9L239,289
	l13.9,13.9c5.6,5.6,8.7,13,8.7,20.9c0,7.9-3.1,15.3-8.7,20.9C247,350.6,239.4,353.5,231.7,353.5L231.7,353.5z"/>
<path class="st7" d="M339.6,305.5c-4,0-8.1-0.7-12-2l-25.4-8.7l6.9-20.2l25.4,8.7c5.5,1.9,11.6,0.7,16-3.1l22.2-23.1l15.4,14.8
	l-22.9,23.8C357.8,302.2,348.7,305.5,339.6,305.5L339.6,305.5z"/>
<path class="st7" d="M416,312.9h-35.6c-5.9,0-10.7-4.8-10.7-10.7V181.3c0-5.9,4.8-10.7,10.7-10.7H416c5.9,0,10.7,4.8,10.7,10.7
	v120.9C426.7,308.1,421.9,312.9,416,312.9z M391.1,291.6h14.2V192h-14.2V291.6z"/>
<path class="st7" d="M131.6,312.9H96c-5.9,0-10.7-4.8-10.7-10.7V181.3c0-5.9,4.8-10.7,10.7-10.7h35.6c5.9,0,10.7,4.8,10.7,10.7
	v120.9C142.2,308.1,137.4,312.9,131.6,312.9z M106.7,291.6h14.2V192h-14.2V291.6z"/>
</svg>
