<?xml version="1.0" encoding="utf-8"?>
<!-- Generator: Adobe Illustrator 23.1.0, SVG Export Plug-In . SVG Version: 6.00 Build 0)  -->
<svg version="1.1" id="Layer_5" xmlns="http://www.w3.org/2000/svg" xmlns:xlink="http://www.w3.org/1999/xlink" x="0px" y="0px"
	 viewBox="0 0 512 512" style="enable-background:new 0 0 512 512;" xml:space="preserve">
<style type="text/css">
	.st0{fill:url(#SVGID_1_);}
	.st1{fill:url(#SVGID_2_);}
	.st2{fill:url(#SVGID_3_);}
	.st3{fill:url(#SVGID_4_);}
	.st4{fill:url(#SVGID_5_);}
	.st5{fill:url(#SVGID_6_);}
	.st6{fill:url(#SVGID_7_);}
</style>
<linearGradient id="SVGID_1_" gradientUnits="userSpaceOnUse" x1="4.6881" y1="262.344" x2="504.0001" y2="262.344">
	<stop  offset="0" style="stop-color:#6666FF"/>
	<stop  offset="1" style="stop-color:#9933FF"/>
</linearGradient>
<path class="st0" d="M446,413.4c10.9-8.8,18-22.3,18-37.4c0-26.5-21.5-48-48-48s-48,21.5-48,48c0,15.1,7,28.6,18,37.4
	c-17.1,6.2-31.7,17.5-42,32.2V440c0-38-24.2-70.3-58-82.6c7.4-5.9,12.9-13.9,15.8-23.1c3.3,1.1,6.7,1.8,10.2,1.8
	c17.6,0,32-14.4,32-32v-18.8l24.8,24.8c5,5.1,11,8.3,17.3,9.5c2,0.4,4,0.5,6,0.5c8.5,0,16.4-3.3,22.6-9.4c6-6,9.4-14.1,9.4-22.6
	s-3.3-16.6-8.9-22.1l-60.5-72.1c-8.8-10.5-19.1-19.6-30.7-27l-79.8-51.3c-11.4-7.3-24.5-12-37.9-13.4l-36.8-4.1l9.9-9.9L112,20.7
	L4.7,128L72,195.3l5.8-5.8l8.8,17.6c7.2,14.4,16.6,27.4,27.9,38.7c5.5,5.5,11.4,10.6,17.7,15.1l71.8,52.2c1.4,1,2.8,1.8,4.2,2.6
	c-0.1,1.4-0.2,2.8-0.2,4.2c0,15.1,7,28.6,18,37.4c-33.8,12.3-58,44.6-58,82.6v5.6c-10.3-14.6-24.9-25.9-42-32.2
	c10.9-8.8,18-22.3,18-37.4c0-26.5-21.5-48-48-48s-48,21.5-48,48c0,15.1,7,28.6,18,37.4C32.2,425.7,8,458,8,496v8h176v-8
	c0-17.7-5.3-34.2-14.3-48h172.7c-9,13.8-14.3,30.3-14.3,48v8h176v-8C504,458,479.8,425.7,446,413.4L446,413.4z M64,376
	c0-17.6,14.4-32,32-32s32,14.4,32,32s-14.4,32-32,32S64,393.6,64,376z M118.3,427.6L96,452.1l-22.3-24.5c7-2.3,14.5-3.6,22.3-3.6
	S111.2,425.3,118.3,427.6z M24.4,488c2.5-22.6,15.5-42,34-53.4L96,475.9l37.5-41.3c18.5,11.4,31.5,30.8,34,53.4H24.4z M261.7,272.4
	c-2-5.5-5.1-10.6-9.6-14.6l-58.6-52.7l61.8,16.9c3.5,0.9,6.7,2.4,9.7,4.4c9.3,6.2,14.8,16.6,14.8,27.8v24.4
	C274.5,275.3,268.3,273.2,261.7,272.4z M403.3,276.7c3,3,4.7,7,4.7,11.3s-1.7,8.3-4.7,11.3c-3.8,3.8-9,5.4-14.4,4.4
	c-3.9-0.7-7-3.1-8.9-5L344,262.6V206L403.3,276.7z M27.3,128L112,43.3L156.7,88L72,172.7L27.3,128z M141.7,248
	c-5.6-4.1-10.9-8.6-15.8-13.5c-10.1-10.1-18.5-21.8-24.9-34.6l-11.2-22.4l65.2-65.2l49.5,5.5c11,1.2,21.7,5,31,11l79.8,51.3
	c4.5,2.9,8.7,6.1,12.7,9.5V304c0,8.8-7.2,16-16,16c-2.9,0-5.7-0.8-8.1-2.2c-0.4-8.9-3.2-17.2-7.9-24.2v-39.4
	c0-16.5-8.2-31.9-22-41.1c-4.4-3-9.3-5.2-14.4-6.6l-81.5-22.2c-2.4-0.6-5-0.2-7,1.4c-2,1.5-3.2,3.9-3.2,6.4v8c0,2.3,1,4.4,2.6,5.9
	l70.8,63.8c4.1,3.7,6.5,9.1,6.5,14.6c0,10.8-8.8,19.7-19.7,19.7H225c-4.2,0-8.2-1.3-11.6-3.8L141.7,248z M224,320
	C224,320,224,320,224,320c0.3-0.1,0.7,0,1,0h3.3c18.1,0,32.9-13.6,35.2-31c14,3.4,24.5,16,24.5,31c0,17.6-14.4,32-32,32
	S224,337.6,224,320z M278.3,371.6L256,396.1l-22.3-24.5c7-2.3,14.5-3.6,22.3-3.6S271.2,369.3,278.3,371.6z M184.4,432
	c2.5-22.6,15.5-42,34-53.4l37.5,41.3l37.5-41.3c18.5,11.4,31.5,30.8,34,53.4H184.4z M384,376c0-17.6,14.4-32,32-32s32,14.4,32,32
	s-14.4,32-32,32S384,393.6,384,376z M438.3,427.6L416,452.1l-22.3-24.5c7-2.3,14.5-3.6,22.3-3.6S431.2,425.3,438.3,427.6z
	 M344.4,488c2.5-22.6,15.5-42,34-53.4l37.5,41.3l37.5-41.3c18.5,11.4,31.5,30.8,34,53.4H344.4z"/>
<linearGradient id="SVGID_2_" gradientUnits="userSpaceOnUse" x1="410.344" y1="50.828" x2="501.656" y2="50.828">
	<stop  offset="0" style="stop-color:#6666FF"/>
	<stop  offset="1" style="stop-color:#9933FF"/>
</linearGradient>
<path class="st1" d="M501.7,21.7l-11.3-11.3L432,68.7l-10.3-10.3l-11.3,11.3L432,91.3L501.7,21.7z"/>
<linearGradient id="SVGID_3_" gradientUnits="userSpaceOnUse" x1="408" y1="136" x2="456" y2="136">
	<stop  offset="0" style="stop-color:#6666FF"/>
	<stop  offset="1" style="stop-color:#9933FF"/>
</linearGradient>
<path class="st2" d="M432,160c13.2,0,24-10.8,24-24s-10.8-24-24-24s-24,10.8-24,24S418.8,160,432,160z M432,128c4.4,0,8,3.6,8,8
	s-3.6,8-8,8s-8-3.6-8-8S427.6,128,432,128z"/>
<linearGradient id="SVGID_4_" gradientUnits="userSpaceOnUse" x1="296" y1="72" x2="392" y2="72">
	<stop  offset="0" style="stop-color:#6666FF"/>
	<stop  offset="1" style="stop-color:#9933FF"/>
</linearGradient>
<path class="st3" d="M296,64h96v16h-96V64z"/>
<linearGradient id="SVGID_5_" gradientUnits="userSpaceOnUse" x1="296" y1="136" x2="360" y2="136">
	<stop  offset="0" style="stop-color:#6666FF"/>
	<stop  offset="1" style="stop-color:#9933FF"/>
</linearGradient>
<path class="st4" d="M296,128h64v16h-64V128z"/>
<linearGradient id="SVGID_6_" gradientUnits="userSpaceOnUse" x1="376" y1="136" x2="392" y2="136">
	<stop  offset="0" style="stop-color:#6666FF"/>
	<stop  offset="1" style="stop-color:#9933FF"/>
</linearGradient>
<path class="st5" d="M376,128h16v16h-16V128z"/>
<linearGradient id="SVGID_7_" gradientUnits="userSpaceOnUse" x1="296" y1="104" x2="392" y2="104">
	<stop  offset="0" style="stop-color:#6666FF"/>
	<stop  offset="1" style="stop-color:#9933FF"/>
</linearGradient>
<path class="st6" d="M296,96h96v16h-96V96z"/>
</svg>
