<?xml version="1.0" encoding="utf-8"?>
<!-- Generator: Adobe Illustrator 23.1.0, SVG Export Plug-In . SVG Version: 6.00 Build 0)  -->
<svg version="1.1" id="_x31_px" xmlns="http://www.w3.org/2000/svg" xmlns:xlink="http://www.w3.org/1999/xlink" x="0px" y="0px"
	 viewBox="0 0 512 512" style="enable-background:new 0 0 512 512;" xml:space="preserve">
<style type="text/css">
	.st0{fill:url(#SVGID_1_);}
	.st1{fill:url(#SVGID_2_);}
	.st2{fill:url(#SVGID_3_);}
	.st3{fill:url(#SVGID_4_);}
	.st4{fill:url(#SVGID_5_);}
	.st5{fill:url(#SVGID_6_);}
</style>
<linearGradient id="SVGID_1_" gradientUnits="userSpaceOnUse" x1="42.6667" y1="256" x2="384" y2="256">
	<stop  offset="0" style="stop-color:#6666FF"/>
	<stop  offset="1" style="stop-color:#9933FF"/>
</linearGradient>
<path class="st0" d="M330.7,512H96c-29.4,0-53.3-23.9-53.3-53.3V53.3C42.7,23.9,66.6,0,96,0h234.7C360.1,0,384,23.9,384,53.3v85.3
	c0,5.9-4.8,10.7-10.7,10.7s-10.7-4.8-10.7-10.7V53.3c0-17.6-14.4-32-32-32H96c-17.6,0-32,14.4-32,32v405.3c0,17.6,14.4,32,32,32
	h234.7c17.6,0,32-14.4,32-32v-85.3c0-5.9,4.8-10.7,10.7-10.7s10.7,4.8,10.7,10.7v85.3C384,488.1,360.1,512,330.7,512z"/>
<linearGradient id="SVGID_2_" gradientUnits="userSpaceOnUse" x1="96" y1="32" x2="330.6667" y2="32">
	<stop  offset="0" style="stop-color:#6666FF"/>
	<stop  offset="1" style="stop-color:#9933FF"/>
</linearGradient>
<path class="st1" d="M256,64h-85.3c-17.6,0-32-14.4-32-32c0-5.9-4.8-10.7-10.7-10.7h-21.3c-5.9,0-10.7-4.8-10.7-10.7
	S100.8,0,106.7,0H128c17.6,0,32,14.4,32,32c0,5.9,4.8,10.7,10.7,10.7H256c5.9,0,10.7-4.8,10.7-10.7c0-17.6,14.4-32,32-32H320
	c5.9,0,10.7,4.8,10.7,10.7s-4.8,10.7-10.7,10.7h-21.3c-5.9,0-10.7,4.8-10.7,10.7C288,49.6,273.6,64,256,64z"/>
<linearGradient id="SVGID_3_" gradientUnits="userSpaceOnUse" x1="255.9947" y1="202.6747" x2="319.984" y2="202.6747">
	<stop  offset="0" style="stop-color:#6666FF"/>
	<stop  offset="1" style="stop-color:#9933FF"/>
</linearGradient>
<path class="st2" d="M309.3,256c-2.7,0-5.5-1-7.6-3.1l-42.7-42.7c-4.2-4.2-4.2-10.9,0-15.1l42.7-42.7c4.2-4.2,10.9-4.2,15.1,0
	c4.2,4.2,4.2,10.9,0,15.1l-35.1,35.1l35.1,35.1c4.2,4.2,4.2,10.9,0,15.1C314.8,255,312.1,256,309.3,256z"/>
<linearGradient id="SVGID_4_" gradientUnits="userSpaceOnUse" x1="261.3333" y1="202.6667" x2="469.3333" y2="202.6667">
	<stop  offset="0" style="stop-color:#6666FF"/>
	<stop  offset="1" style="stop-color:#9933FF"/>
</linearGradient>
<path class="st3" d="M458.7,213.3H272c-5.9,0-10.7-4.8-10.7-10.7S266.1,192,272,192h186.7c5.9,0,10.7,4.8,10.7,10.7
	S464.6,213.3,458.7,213.3z"/>
<linearGradient id="SVGID_5_" gradientUnits="userSpaceOnUse" x1="405.328" y1="309.352" x2="469.3174" y2="309.352">
	<stop  offset="0" style="stop-color:#6666FF"/>
	<stop  offset="1" style="stop-color:#9933FF"/>
</linearGradient>
<path class="st4" d="M416,362.7c-2.7,0-5.5-1-7.6-3.1c-4.2-4.2-4.2-10.9,0-15.1l35.1-35.1l-35.1-35.1c-4.2-4.2-4.2-10.9,0-15.1
	c4.2-4.2,10.9-4.2,15.1,0l42.7,42.7c4.2,4.2,4.2,10.9,0,15.1l-42.7,42.7C421.5,361.6,418.7,362.7,416,362.7z"/>
<linearGradient id="SVGID_6_" gradientUnits="userSpaceOnUse" x1="256" y1="309.3333" x2="464" y2="309.3333">
	<stop  offset="0" style="stop-color:#6666FF"/>
	<stop  offset="1" style="stop-color:#9933FF"/>
</linearGradient>
<path class="st5" d="M453.3,320H266.7c-5.9,0-10.7-4.8-10.7-10.7s4.8-10.7,10.7-10.7h186.7c5.9,0,10.7,4.8,10.7,10.7
	S459.2,320,453.3,320z"/>
</svg>
