<svg id="Capa_1" data-name="Capa 1" xmlns="http://www.w3.org/2000/svg" xmlns:xlink="http://www.w3.org/1999/xlink" viewBox="0 0 443.54 512"><defs><style>.cls-1{fill:url(#linear-gradient);}.cls-2{fill:url(#linear-gradient-2);}.cls-3{fill:url(#linear-gradient-3);}.cls-4{fill:url(#linear-gradient-4);}</style><linearGradient id="linear-gradient" x1="129.08" y1="256" x2="477.77" y2="256" gradientUnits="userSpaceOnUse"><stop offset="0" stop-color="#66f"/><stop offset="1" stop-color="#93f"/></linearGradient><linearGradient id="linear-gradient-2" x1="34.23" y1="300.84" x2="99.6" y2="300.84" xlink:href="#linear-gradient"/><linearGradient id="linear-gradient-3" x1="93.36" y1="64.87" x2="113.37" y2="64.87" xlink:href="#linear-gradient"/><linearGradient id="linear-gradient-4" x1="142.19" y1="206.26" x2="336.49" y2="206.26" xlink:href="#linear-gradient"/></defs><title>wisdom</title><path class="cls-1" d="M476.88,309.27,444.42,203.58A205.39,205.39,0,0,0,134,28.91a10,10,0,1,0,10.25,17.17A185.48,185.48,0,0,1,242.38,20c100.38,1.62,182,84.65,182,185.08a10.05,10.05,0,0,0,.44,2.93l32.87,107H412.88a10,10,0,0,0-10,10v55.22A47.78,47.78,0,0,1,355.16,428H278.79a88.42,88.42,0,0,1-62.94-26.07,10,10,0,1,0-14.15,14.14A108.31,108.31,0,0,0,275.85,448l-14.69,51.28A10,10,0,0,0,268,511.61a10.16,10.16,0,0,0,2.76.39,10,10,0,0,0,9.61-7.25L296.64,448h58.52a67.8,67.8,0,0,0,67.72-67.72V335.06h34.94a19.95,19.95,0,0,0,19.06-25.79Z" transform="translate(-34.23 0)"/><path class="cls-2" d="M54.25,201.87a185.14,185.14,0,0,1,29.08-96.79A10,10,0,1,0,66.49,94.29,205,205,0,0,0,34.26,201.53c-.66,38.79,9.42,82.08,27.66,118.77C79.45,355.58,84.14,395.61,75.12,433L59.05,499.65a10,10,0,1,0,19.45,4.69l16.06-66.61c10.12-42,4.89-86.85-14.73-126.33C63,277.49,53.65,237.57,54.25,201.87Z" transform="translate(-34.23 0)"/><path class="cls-3" d="M96.47,57.62a10,10,0,0,0-.35,14.14h0a10,10,0,1,0,.34-14.15Z" transform="translate(-34.23 0)"/><path class="cls-4" d="M276,336.26a10,10,0,0,0,10-10V280h0A41,41,0,0,1,301.1,248.4,97.14,97.14,0,0,0,242.71,76.33c-27.41-.94-52.92,8.75-71.82,27.29s-29.08,43.83-28.68,71.24a96.91,96.91,0,0,0,35.95,74A39.86,39.86,0,0,1,192.73,280v46.22a10,10,0,0,0,10,10Zm-10-20H212.73V290H266Zm-75.19-82.92a77,77,0,0,1-28.56-58.77c-.32-21.89,7.74-42,22.69-56.67S220.13,95.57,242,96.32A77.14,77.14,0,0,1,288.38,233,61.17,61.17,0,0,0,266.79,270H249.34V208.92a30.28,30.28,0,1,0-20,0V270H211.92a59.36,59.36,0,0,0-21.16-36.7Zm48.58-42.71a10.29,10.29,0,1,1,10.28-10.28A10.3,10.3,0,0,1,239.34,190.63Z" transform="translate(-34.23 0)"/></svg>