<svg id="Layer_5" enable-background="new 0 0 64 64" height="512" viewBox="0 0 64 64" width="512" xmlns="http://www.w3.org/2000/svg"><g><path d="m22 42.906c0-1.841-1.284-3.378-3-3.789v-2.117h-2v2.117c-1.716.411-3 1.948-3 3.789 0 1.684 1.073 3.172 2.671 3.705l2.025.676c.78.26 1.304.986 1.304 1.808 0 1.05-.854 1.905-1.905 1.905h-.189c-1.052 0-1.906-.855-1.906-1.906v-1.094h-2v1.094c0 1.841 1.284 3.378 3 3.789v2.117h2v-2.117c1.716-.411 3-1.948 3-3.789 0-1.684-1.073-3.172-2.671-3.705l-2.025-.676c-.781-.259-1.304-.986-1.304-1.807 0-1.051.854-1.906 1.905-1.906h.189c1.052 0 1.906.855 1.906 1.906v.094z"/><path d="m18 33c-7.168 0-13 5.832-13 13s5.832 13 13 13 13-5.832 13-13-5.832-13-13-13zm0 24c-6.065 0-11-4.935-11-11s4.935-11 11-11 11 4.935 11 11-4.935 11-11 11z"/><path d="m45 22v-1h7c6.065 0 11-4.935 11-11v-1h-9c-3.72 0-7.008 1.861-9 4.695v-.695-1c0-6.065-4.935-11-11-11h-9v1c0 6.065 4.935 11 11 11h7v4.111c-1.272-1.301-3.042-2.111-5-2.111h-5v1c0 3.86 3.141 7 7 7h3v5.356c-1.651-2.044-4.174-3.356-7-3.356h-7v1c0 4.962 4.037 9 9 9h5v2.017c-3.752.115-7.311.867-9.523 1.99-2.673-5.892-8.597-10.007-15.477-10.007-9.374 0-17 7.626-17 17s7.626 17 17 17c5.212 0 9.879-2.363 13-6.068v1.068c0 3.449 7.602 5 13 5s13-1.551 13-5v-16c0-3.241-6.711-4.805-12-4.982v-2.018h7c6.065 0 11-4.935 11-11v-1h-9c-3.72 0-7.008 1.861-9 4.695v-4.695zm9-11h6.944c-.499 4.494-4.319 8-8.944 8h-6.944c.499-4.494 4.319-8 8.944-8zm-18 0c-4.625 0-8.445-3.506-8.944-8h6.944c4.625 0 8.445 3.506 8.944 8zm4 10c-2.415 0-4.435-1.721-4.899-4h2.899c2.415 0 4.435 1.721 4.899 4zm-2 12c-3.521 0-6.442-2.612-6.929-6h4.929c3.521 0 6.442 2.612 6.929 6zm5 19.981c-1.375-.047-2.737-.188-4-.403v-1.971c1.275.201 2.624.328 4 .37zm-6-.828c-1.112-.289-2.07-.64-2.791-1.033.168-.53.31-1.071.426-1.621.713.273 1.507.514 2.366.718v1.936zm-4 1.83c.172-.322.326-.655.477-.989.954.484 2.159.899 3.523 1.224v1.942c-2.498-.656-4-1.554-4-2.16zm6 .628c1.27.201 2.622.33 4 .372v1.998c-1.458-.046-2.799-.19-4-.395zm4 4.371v1.999c-1.458-.046-2.799-.19-4-.395v-1.989c1.34.213 2.711.342 4 .385zm2 0c1.289-.043 2.66-.173 4-.385v1.989c-1.201.205-2.542.349-4 .395zm0-2.001v-1.999c1.289-.043 2.66-.173 4-.385v1.989c-1.201.206-2.542.35-4 .395zm0-4v-1.999c1.289-.043 2.66-.173 4-.385v1.989c-1.201.206-2.542.35-4 .395zm0-4v-1.999c1.289-.043 2.66-.173 4-.385v1.989c-1.201.206-2.542.35-4 .395zm-2-.004c-1.379-.046-2.736-.183-4-.398v-1.972c1.275.201 2.625.328 4 .37zm-6-.824c-.771-.202-1.469-.435-2.074-.695.041-.481.074-.966.074-1.458 0-.127-.016-.251-.019-.377.623.221 1.295.422 2.019.594zm-19 12.847c-8.271 0-15-6.729-15-15s6.729-15 15-15 15 6.729 15 15-6.729 15-15 15zm15-3v-1.273c1.061.628 2.463 1.116 4 1.479v1.954c-2.498-.657-4-1.555-4-2.16zm18 2.16v-1.954c1.537-.363 2.939-.851 4-1.479v1.273c0 .605-1.502 1.503-4 2.16zm0-4v-1.954c1.537-.363 2.939-.851 4-1.479v1.273c0 .605-1.502 1.503-4 2.16zm0-4v-1.954c1.537-.363 2.939-.851 4-1.479v1.273c0 .605-1.502 1.503-4 2.16zm0-4v-1.954c1.537-.363 2.939-.851 4-1.479v1.273c0 .605-1.502 1.503-4 2.16zm4-6.16c0 1.054-4.536 3-11 3-3.507 0-7.04-.628-9.222-1.609-.133-.858-.313-1.701-.57-2.512 1.855-1.012 5.286-1.741 8.792-1.86v3.981h2v-3.981c5.925.186 10 1.983 10 2.981zm-1-17h6.944c-.499 4.494-4.319 8-8.944 8h-6.944c.499-4.494 4.319-8 8.944-8z"/></g></svg>