<svg id="line" xmlns="http://www.w3.org/2000/svg" viewBox="0 0 360.01 480"><title>ownership</title><path d="M167,493.66a8,8,0,0,0,11.31,0l32-32a8,8,0,0,0,0-11.32L208,448l24-23.93H332.7a8,8,0,0,0,5.65-2.34l104-104a8,8,0,0,0,0-11.31,53.32,53.32,0,0,0-75.31,0l-29.66,29.66H308.7V312.16a24.12,24.12,0,0,0-24.07-24.09L196.34,288a8,8,0,0,0-5.68,2.4L143,338.46a8,8,0,0,0-2.32,5.6V364.8l-8,7.94-2.36-2.4a8,8,0,0,0-11.32,0l-32,32a8,8,0,0,0,0,11.32ZM154.3,373.75a8,8,0,0,0,2.4-5.67v-20.7l43-43.38,85,.07a8.1,8.1,0,0,1,8.08,8.09v23.92h-64v16h112a8,8,0,0,0,5.65-2.34l32-32a37.33,37.33,0,0,1,46.4-5l-95.37,95.38H228.7a8,8,0,0,0-5.65,2.34L196.7,436.7,144,384Zm-29.6,13.6L193.38,456,172.7,476.69,128,432l10.34-10.34L127,410.34,116.7,420.69,104,408Z" transform="translate(-84.68 -16)"/><path d="M260.61,16h16V32h-16Z" transform="translate(-84.68 -16)"/><path d="M221.46,27l14.79-6.13,6.12,14.78-14.78,6.13Z" transform="translate(-84.68 -16)"/><path d="M189.39,52.14,200.7,40.82,212,52.14,200.7,63.45Z" transform="translate(-84.68 -16)"/><path d="M169.52,87.58l6.13-14.79,14.78,6.13L184.3,93.7Z" transform="translate(-84.68 -16)"/><path d="M346.92,78.89l14.79-6.13,6.13,14.78-14.79,6.13Z" transform="translate(-84.68 -16)"/><path d="M325.14,52.15l11.32-11.31,11.31,11.31L336.46,63.46Z" transform="translate(-84.68 -16)"/><path d="M295,35.6l6.13-14.79,14.79,6.13-6.13,14.78Z" transform="translate(-84.68 -16)"/><path d="M228.61,179.8v13.67A23.76,23.76,0,0,0,218.86,232a23.89,23.89,0,0,0,17.75,40h64a23.9,23.9,0,0,0,17.76-40,23.79,23.79,0,0,0-9.76-38.53V179.8a72,72,0,1,0-80,0Zm72,76.2h-64a8,8,0,0,1,0-16h64a8,8,0,0,1,0,16Zm0-32h-64a8,8,0,0,1,0-16h64a8,8,0,0,1,0,16Zm-32-160a56,56,0,0,1,28,104.45,8,8,0,0,0-4,6.92V192h-16V163.31l25.69-25.65a25,25,0,0,0,0-35.29l0,0a25.62,25.62,0,0,0-33.66-1.52A25.62,25.62,0,0,0,235,102.34a25,25,0,0,0,0,35.32l4,4,11.32-11.32-4-4a9,9,0,0,1,0-12.68,9.18,9.18,0,0,1,12.68,0l4,4a8,8,0,0,0,11.32,0l4-4a9.18,9.18,0,0,1,12.68,0,8.94,8.94,0,0,1,0,12.66l0,0-28,28a8,8,0,0,0-2.34,5.66v32h-16V175.37a8,8,0,0,0-4-6.92A56,56,0,0,1,268.61,64Z" transform="translate(-84.68 -16)"/></svg>