<?xml version="1.0" encoding="utf-8"?>
<!-- Generator: Adobe Illustrator 25.1.0, SVG Export Plug-In . SVG Version: 6.00 Build 0)  -->
<svg version="1.1" id="Layer_1" xmlns="http://www.w3.org/2000/svg" xmlns:xlink="http://www.w3.org/1999/xlink" x="0px" y="0px"
	 viewBox="0 0 47 47" style="enable-background:new 0 0 47 47;" xml:space="preserve">
<style type="text/css">
	.st0{fill:url(#SVGID_1_);}
	.st1{fill:url(#SVGID_2_);}
	.st2{fill:url(#SVGID_3_);}
	.st3{fill:url(#SVGID_4_);}
	.st4{fill:url(#SVGID_5_);}
	.st5{fill:url(#SVGID_6_);}
	.st6{fill:url(#SVGID_7_);}
	.st7{fill:url(#SVGID_8_);}
	.st8{fill:url(#SVGID_9_);}
	.st9{fill:url(#SVGID_10_);}
	.st10{fill:url(#SVGID_11_);}
	.st11{fill:url(#SVGID_12_);}
	.st12{fill:url(#SVGID_13_);}
	.st13{fill:url(#SVGID_14_);}
	.st14{fill:url(#SVGID_15_);}
	.st15{fill:url(#SVGID_16_);}
	.st16{fill:url(#SVGID_17_);}
	.st17{fill:url(#SVGID_18_);}
	.st18{fill:url(#SVGID_19_);}
	.st19{fill:url(#SVGID_20_);}
	.st20{fill:url(#SVGID_21_);}
	.st21{fill:url(#SVGID_22_);}
	.st22{fill:url(#SVGID_23_);}
	.st23{fill:url(#SVGID_24_);}
	.st24{fill:url(#SVGID_25_);}
</style>
<g transform="translate(-1 -1)">
	<g>
		<g>
			<linearGradient id="SVGID_1_" gradientUnits="userSpaceOnUse" x1="18.9809" y1="8.0453" x2="23.1446" y2="8.0453">
				<stop  offset="0" style="stop-color:#10B857;stop-opacity:0.99"/>
				<stop  offset="1" style="stop-color:#18B7EC"/>
			</linearGradient>
			<path class="st0" d="M21.62,9.91l1.53-2.54c-0.47-0.27-0.83-0.69-1.05-1.18l-2.74,0.55c0,0.05,0.02,0.1,0.02,0.15
				c0,0.47-0.14,0.94-0.39,1.33L21.62,9.91z"/>
			<linearGradient id="SVGID_2_" gradientUnits="userSpaceOnUse" x1="27.7782" y1="12.7608" x2="29.4594" y2="12.7608">
				<stop  offset="0" style="stop-color:#10B857;stop-opacity:0.99"/>
				<stop  offset="1" style="stop-color:#18B7EC"/>
			</linearGradient>
			<circle class="st1" cx="28.62" cy="12.76" r="0.84"/>
			<linearGradient id="SVGID_3_" gradientUnits="userSpaceOnUse" x1="23.5751" y1="5.1952" x2="25.2564" y2="5.1952">
				<stop  offset="0" style="stop-color:#10B857;stop-opacity:0.99"/>
				<stop  offset="1" style="stop-color:#18B7EC"/>
			</linearGradient>
			<circle class="st2" cx="24.42" cy="5.2" r="0.84"/>
			<linearGradient id="SVGID_4_" gradientUnits="userSpaceOnUse" x1="23.1657" y1="10.0796" x2="27.1065" y2="10.0796">
				<stop  offset="0" style="stop-color:#10B857;stop-opacity:0.99"/>
				<stop  offset="1" style="stop-color:#18B7EC"/>
			</linearGradient>
			<path class="st3" d="M24.26,11.92h1.99c0.16-0.46,0.46-0.87,0.85-1.16l-2.52-2.52l-1.42,2.36C23.67,10.9,24.06,11.37,24.26,11.92
				z"/>
			<linearGradient id="SVGID_5_" gradientUnits="userSpaceOnUse" x1="14.8612" y1="10.5735" x2="20.142" y2="10.5735">
				<stop  offset="0" style="stop-color:#10B857;stop-opacity:0.99"/>
				<stop  offset="1" style="stop-color:#18B7EC"/>
			</linearGradient>
			<path class="st4" d="M15.85,11.92h3.67c0.13-0.36,0.34-0.7,0.61-0.97l-2.6-1.67c-0.53,0.17-1.1,0.14-1.61-0.07l-1.07,1.43
				C15.32,10.96,15.67,11.4,15.85,11.92z"/>
			<linearGradient id="SVGID_6_" gradientUnits="userSpaceOnUse" x1="16.0094" y1="6.8763" x2="17.6907" y2="6.8763">
				<stop  offset="0" style="stop-color:#10B857;stop-opacity:0.99"/>
				<stop  offset="1" style="stop-color:#18B7EC"/>
			</linearGradient>
			<circle class="st5" cx="16.85" cy="6.88" r="0.84"/>
			<linearGradient id="SVGID_7_" gradientUnits="userSpaceOnUse" x1="21.0532" y1="12.7608" x2="22.7345" y2="12.7608">
				<stop  offset="0" style="stop-color:#10B857;stop-opacity:0.99"/>
				<stop  offset="1" style="stop-color:#18B7EC"/>
			</linearGradient>
			<circle class="st6" cx="21.89" cy="12.76" r="0.84"/>
			<linearGradient id="SVGID_8_" gradientUnits="userSpaceOnUse" x1="37.8657" y1="17.8044" x2="39.5402" y2="17.8044">
				<stop  offset="0" style="stop-color:#10B857;stop-opacity:0.99"/>
				<stop  offset="1" style="stop-color:#18B7EC"/>
			</linearGradient>
			<path class="st7" d="M37.93,18.12c0,0.01,0,0.02,0,0.02c0.17,0.39,0.61,0.59,1.02,0.46s0.65-0.55,0.56-0.97s-0.48-0.7-0.91-0.66
				c-0.43,0.05-0.75,0.41-0.75,0.84C37.87,17.91,37.89,18.01,37.93,18.12L37.93,18.12z"/>
			<linearGradient id="SVGID_9_" gradientUnits="userSpaceOnUse" x1="35.3439" y1="11.0789" x2="37.0342" y2="11.0789">
				<stop  offset="0" style="stop-color:#10B857;stop-opacity:0.99"/>
				<stop  offset="1" style="stop-color:#18B7EC"/>
			</linearGradient>
			<path class="st8" d="M35.85,11.85c0.01,0,0.02,0,0.02,0l0.01,0.01c0.1,0.04,0.2,0.06,0.3,0.06c0.43,0,0.8-0.32,0.84-0.75
				c0.05-0.43-0.24-0.83-0.67-0.92c-0.42-0.09-0.85,0.16-0.98,0.57C35.25,11.23,35.45,11.68,35.85,11.85z"/>
			<linearGradient id="SVGID_10_" gradientUnits="userSpaceOnUse" x1="30.3001" y1="6.8763" x2="31.9813" y2="6.8763">
				<stop  offset="0" style="stop-color:#10B857;stop-opacity:0.99"/>
				<stop  offset="1" style="stop-color:#18B7EC"/>
			</linearGradient>
			<circle class="st9" cx="31.14" cy="6.88" r="0.84"/>
			<linearGradient id="SVGID_11_" gradientUnits="userSpaceOnUse" x1="25.9289" y1="8.999" x2="33.8274" y2="8.999">
				<stop  offset="0" style="stop-color:#10B857;stop-opacity:0.99"/>
				<stop  offset="1" style="stop-color:#18B7EC"/>
			</linearGradient>
			<path class="st10" d="M30.94,11.78l2.74-0.55c0-0.05-0.02-0.1-0.02-0.15c0-0.3,0.06-0.59,0.16-0.87l-1.41-1.17
				c-0.39,0.23-0.83,0.36-1.28,0.36c-1.39,0-2.52-1.13-2.52-2.52c0-0.06,0.01-0.12,0.02-0.18l-1.92-0.48
				c-0.18,0.39-0.45,0.73-0.79,0.98l3.08,3.08C29.87,10.41,30.6,10.98,30.94,11.78z"/>
			<linearGradient id="SVGID_12_" gradientUnits="userSpaceOnUse" x1="31.9706" y1="19.4929" x2="33.6621" y2="19.4929">
				<stop  offset="0" style="stop-color:#10B857;stop-opacity:0.99"/>
				<stop  offset="1" style="stop-color:#18B7EC"/>
			</linearGradient>
			<path class="st11" d="M33.13,18.71L33.13,18.71c-0.1-0.04-0.21-0.06-0.31-0.07c-0.43,0-0.8,0.32-0.85,0.75
				c-0.05,0.43,0.24,0.83,0.67,0.92c0.42,0.09,0.85-0.16,0.98-0.57c0.13-0.41-0.07-0.86-0.47-1.03
				C33.15,18.72,33.14,18.72,33.13,18.71z"/>
			<linearGradient id="SVGID_13_" gradientUnits="userSpaceOnUse" x1="30.2488" y1="14.83" x2="34.5251" y2="14.83">
				<stop  offset="0" style="stop-color:#10B857;stop-opacity:0.99"/>
				<stop  offset="1" style="stop-color:#18B7EC"/>
			</linearGradient>
			<path class="st12" d="M30.25,14.67l2.72,2.18l1.55-3.88c-0.06-0.05-0.12-0.1-0.17-0.16l-3.33,0.67
				C30.89,13.94,30.62,14.36,30.25,14.67z"/>
			<linearGradient id="SVGID_14_" gradientUnits="userSpaceOnUse" x1="27.1242" y1="23.9029" x2="34.8301" y2="23.9029">
				<stop  offset="0" style="stop-color:#10B857;stop-opacity:0.99"/>
				<stop  offset="1" style="stop-color:#18B7EC"/>
			</linearGradient>
			<path class="st13" d="M32.82,22.01c-1.01,0-1.93-0.61-2.32-1.54l-2.84,0.57c-0.11,0.36-0.29,0.69-0.54,0.97l2.79,4.25
				c0.97-0.18,1.95,0.25,2.48,1.08l1.42-1.13c-0.1-0.26-0.15-0.54-0.15-0.82c0-0.86,0.44-1.66,1.17-2.12l-1.04-1.44
				C33.49,21.94,33.16,22.01,32.82,22.01z"/>
			<linearGradient id="SVGID_15_" gradientUnits="userSpaceOnUse" x1="27.0965" y1="17.5241" x2="31.1928" y2="17.5241">
				<stop  offset="0" style="stop-color:#10B857;stop-opacity:0.99"/>
				<stop  offset="1" style="stop-color:#18B7EC"/>
			</linearGradient>
			<path class="st14" d="M30.42,18.78c0.14-0.47,0.41-0.88,0.78-1.2l-2.35-1.88l-1.75,2.91c0.2,0.21,0.36,0.46,0.48,0.73
				L30.42,18.78z"/>
			<linearGradient id="SVGID_16_" gradientUnits="userSpaceOnUse" x1="34.4805" y1="15.967" x2="37.5042" y2="15.967">
				<stop  offset="0" style="stop-color:#10B857;stop-opacity:0.99"/>
				<stop  offset="1" style="stop-color:#18B7EC"/>
			</linearGradient>
			<path class="st15" d="M36.19,17.91c0-0.03-0.01-0.07-0.01-0.1c0-0.92,0.51-1.77,1.32-2.2l-1.02-2.03c-0.1,0.02-0.2,0.03-0.3,0.03
				c-0.03,0-0.07-0.01-0.1-0.01l-1.6,4.01c0.24,0.21,0.44,0.47,0.58,0.75L36.19,17.91z"/>
			<linearGradient id="SVGID_17_" gradientUnits="userSpaceOnUse" x1="29.4594" y1="28.7327" x2="31.1407" y2="28.7327">
				<stop  offset="0" style="stop-color:#10B857;stop-opacity:0.99"/>
				<stop  offset="1" style="stop-color:#18B7EC"/>
			</linearGradient>
			<circle class="st16" cx="30.3" cy="28.73" r="0.84"/>
			<linearGradient id="SVGID_18_" gradientUnits="userSpaceOnUse" x1="3.3928" y1="24.5232" x2="42.905" y2="24.5232">
				<stop  offset="0" style="stop-color:#10B857;stop-opacity:0.99"/>
				<stop  offset="1" style="stop-color:#18B7EC"/>
			</linearGradient>
			<path class="st17" d="M38.23,35.34c2.12-3.71,3.58-7.75,4.34-11.95c1.21-6.58-0.73-15.6-7.85-19.87
				c-4.54-2.54-9.9-3.21-14.92-1.86C12.72,3.55,7.73,8.4,6.1,14.97c-0.35,1.26-0.5,2.57-0.45,3.88c0.04,0.5,0.12,1,0.23,1.49
				c0.96-0.76,2.07-1.31,3.26-1.62c0.68-0.13,1.38-0.09,2.04,0.11c0.29,0.08,0.51,0.31,0.59,0.6s-0.01,0.6-0.22,0.81
				c-0.21,0.21-0.52,0.29-0.81,0.21c-0.4-0.13-0.83-0.16-1.25-0.09c-1.17,0.34-2.25,0.94-3.17,1.75c0.25,1.02,0.37,2.07,0.35,3.12
				c-0.05,1.89-1.21,3.64-2.14,5.05c-0.44,0.65-1.24,1.87-1.12,2.17c0.02,0.04,0.2,0.2,0.81,0.33c0.66,0,1.3,0.27,1.76,0.74
				c0.46,0.47,0.72,1.12,0.7,1.78c-0.02,0.55,0,1.11,0.05,1.66c0.18,0.02,0.51,0.02,0.82,0.02c0.39,0,0.73,0.27,0.82,0.65
				c0.09,0.38-0.1,0.77-0.45,0.94c-0.2,0.1-0.39,0.24-0.56,0.39c0.14,0.09,0.29,0.15,0.45,0.17c0.86,0.2,1.43,0.62,1.43,2.04
				c-0.01,0.37-0.03,0.74-0.08,1.11c-0.13,1.3-0.19,1.84,1.21,2.29c2.21,0.72,12.11-1.64,14.49-4.75c0.28-0.37,0.81-0.44,1.18-0.16
				c0.37,0.28,0.44,0.81,0.16,1.18c-1.03,1.35-3.18,2.57-5.61,3.53c0.61,1.15,1.03,2.4,1.24,3.69h18.6
				c-1.56-2.73-3.37-8.04-3.39-10.05c-0.01-0.13,0-0.26,0.05-0.39C37.37,36.94,37.77,36.2,38.23,35.34z M36.18,27.9
				c-0.47,0-0.93-0.14-1.32-0.39l-2.08,1.67c-0.18,1.06-1.01,1.88-2.07,2.06s-2.11-0.34-2.62-1.28c-0.51-0.94-0.37-2.1,0.35-2.9
				l-2.79-4.25c-1.2,0.22-2.37-0.48-2.75-1.64h-4.51c-0.35,0.98-1.26,1.64-2.29,1.68c-1.04,0.03-1.99-0.57-2.39-1.52
				c-0.41-0.95-0.19-2.06,0.55-2.78l-1.35-3.33c-1.16-0.28-1.96-1.33-1.92-2.52c0.03-1.19,0.9-2.19,2.07-2.4l1.63-2.17
				c-0.22-0.37-0.33-0.8-0.34-1.23c0-1.03,0.63-1.96,1.59-2.34c0.96-0.38,2.06-0.14,2.76,0.62l3.33-0.67
				c0.31-1.08,1.3-1.82,2.42-1.81c1.12,0.01,2.1,0.76,2.4,1.84l2.49,0.62c0.82-0.87,2.14-1.04,3.16-0.41
				c1.02,0.64,1.44,1.9,1.01,3.02l1.41,1.17c0.39-0.23,0.83-0.36,1.28-0.36c1.01,0,1.93,0.6,2.32,1.54c0.4,0.93,0.19,2.01-0.51,2.74
				l1.26,2.52c1.07,0.23,1.86,1.13,1.97,2.22c0.1,1.09-0.51,2.12-1.51,2.55c-1,0.43-2.17,0.17-2.89-0.66l-1.56,0.62
				c-0.05,0.2-0.13,0.39-0.23,0.58l1.61,2.23c1.28,0.24,2.17,1.41,2.05,2.71C38.58,26.91,37.49,27.9,36.18,27.9z"/>
			<linearGradient id="SVGID_19_" gradientUnits="userSpaceOnUse" x1="12.6469" y1="12.7608" x2="14.3282" y2="12.7608">
				<stop  offset="0" style="stop-color:#10B857;stop-opacity:0.99"/>
				<stop  offset="1" style="stop-color:#18B7EC"/>
			</linearGradient>
			<circle class="st18" cx="13.49" cy="12.76" r="0.84"/>
			<linearGradient id="SVGID_20_" gradientUnits="userSpaceOnUse" x1="35.3438" y1="25.3701" x2="37.0251" y2="25.3701">
				<stop  offset="0" style="stop-color:#10B857;stop-opacity:0.99"/>
				<stop  offset="1" style="stop-color:#18B7EC"/>
			</linearGradient>
			<circle class="st19" cx="36.18" cy="25.37" r="0.84"/>
			<linearGradient id="SVGID_21_" gradientUnits="userSpaceOnUse" x1="24.4157" y1="20.3263" x2="26.097" y2="20.3263">
				<stop  offset="0" style="stop-color:#10B857;stop-opacity:0.99"/>
				<stop  offset="1" style="stop-color:#18B7EC"/>
			</linearGradient>
			<circle class="st20" cx="25.26" cy="20.33" r="0.84"/>
			<linearGradient id="SVGID_22_" gradientUnits="userSpaceOnUse" x1="14.6208" y1="15.7307" x2="20.2865" y2="15.7307">
				<stop  offset="0" style="stop-color:#10B857;stop-opacity:0.99"/>
				<stop  offset="1" style="stop-color:#18B7EC"/>
			</linearGradient>
			<path class="st21" d="M19.53,13.6h-3.67c-0.22,0.61-0.66,1.11-1.23,1.4l1.15,2.83c0.08-0.01,0.16-0.02,0.24-0.02
				c0.16,0,0.32,0.02,0.48,0.05l3.8-3.17C19.94,14.4,19.68,14.03,19.53,13.6z"/>
			<linearGradient id="SVGID_23_" gradientUnits="userSpaceOnUse" x1="15.1688" y1="20.3263" x2="16.8501" y2="20.3263">
				<stop  offset="0" style="stop-color:#10B857;stop-opacity:0.99"/>
				<stop  offset="1" style="stop-color:#18B7EC"/>
			</linearGradient>
			<circle class="st22" cx="16.01" cy="20.33" r="0.84"/>
			<linearGradient id="SVGID_24_" gradientUnits="userSpaceOnUse" x1="17.9925" y1="17.4195" x2="23.5271" y2="17.4195">
				<stop  offset="0" style="stop-color:#10B857;stop-opacity:0.99"/>
				<stop  offset="1" style="stop-color:#18B7EC"/>
			</linearGradient>
			<path class="st23" d="M17.99,18.79c0.16,0.21,0.29,0.45,0.38,0.7h4.51c0.13-0.37,0.35-0.71,0.64-0.99l-1.41-3.15L17.99,18.79z"/>
			<linearGradient id="SVGID_25_" gradientUnits="userSpaceOnUse" x1="23.6223" y1="15.7236" x2="27.3479" y2="15.7236">
				<stop  offset="0" style="stop-color:#10B857;stop-opacity:0.99"/>
				<stop  offset="1" style="stop-color:#18B7EC"/>
			</linearGradient>
			<path class="st24" d="M25.26,17.81c0.12,0,0.23,0.02,0.34,0.03l1.75-2.91c-0.51-0.3-0.9-0.77-1.1-1.32h-1.99
				c-0.13,0.37-0.35,0.71-0.64,0.99l1.44,3.24C25.13,17.82,25.19,17.81,25.26,17.81z"/>
		</g>
	</g>
</g>
</svg>
