<?xml version="1.0" encoding="utf-8"?>
<!-- Generator: Adobe Illustrator 25.1.0, SVG Export Plug-In . SVG Version: 6.00 Build 0)  -->
<svg version="1.1" id="Layer_1" xmlns="http://www.w3.org/2000/svg" xmlns:xlink="http://www.w3.org/1999/xlink" x="0px" y="0px"
	 viewBox="0 0 47 47" style="enable-background:new 0 0 47 47;" xml:space="preserve">
<style type="text/css">
	.st0{fill:url(#Oval_3_);}
	.st1{fill:url(#Oval_4_);}
	.st2{fill:url(#Oval_5_);}
	.st3{fill:url(#Shape_4_);}
	.st4{fill:url(#Shape_5_);}
	.st5{fill:url(#Rectangle-path_2_);}
	.st6{fill:url(#Shape_6_);}
	.st7{fill:url(#Shape_7_);}
	.st8{fill:url(#Rectangle-path_3_);}
</style>
<g id="Page-1">
	<g id="_x30_42---Big-Data">
		<linearGradient id="Oval_3_" gradientUnits="userSpaceOnUse" x1="14.1423" y1="16.5014" x2="17.2616" y2="16.5014">
			<stop  offset="0" style="stop-color:#10B857;stop-opacity:0.99"/>
			<stop  offset="1" style="stop-color:#18B7EC"/>
		</linearGradient>
		<circle id="Oval" class="st0" cx="15.7" cy="16.5" r="1.56"/>
		<linearGradient id="Oval_4_" gradientUnits="userSpaceOnUse" x1="21.9406" y1="11.0426" x2="25.0599" y2="11.0426">
			<stop  offset="0" style="stop-color:#10B857;stop-opacity:0.99"/>
			<stop  offset="1" style="stop-color:#18B7EC"/>
		</linearGradient>
		<circle id="Oval_1_" class="st1" cx="23.5" cy="11.04" r="1.56"/>
		<linearGradient id="Oval_5_" gradientUnits="userSpaceOnUse" x1="29.7389" y1="16.5014" x2="32.8582" y2="16.5014">
			<stop  offset="0" style="stop-color:#10B857;stop-opacity:0.99"/>
			<stop  offset="1" style="stop-color:#18B7EC"/>
		</linearGradient>
		<circle id="Oval_2_" class="st2" cx="31.3" cy="16.5" r="1.56"/>
		<linearGradient id="Shape_4_" gradientUnits="userSpaceOnUse" x1="2.4441" y1="12.9921" x2="44.5565" y2="12.9921">
			<stop  offset="0" style="stop-color:#10B857;stop-opacity:0.99"/>
			<stop  offset="1" style="stop-color:#18B7EC"/>
		</linearGradient>
		<path id="Shape" class="st3" d="M9.48,25.86h13.24v-3.12h-5.46c-1.29,0-2.34-1.05-2.34-2.34v-0.88c-1.52-0.39-2.51-1.86-2.31-3.41
			s1.52-2.73,3.09-2.73s2.9,1.17,3.09,2.73c0.2,1.56-0.79,3.02-2.31,3.41v0.88c0,0.43,0.35,0.78,0.78,0.78h5.46v-7.12
			c-1.52-0.39-2.51-1.86-2.31-3.41c0.2-1.56,1.52-2.73,3.09-2.73s2.9,1.17,3.09,2.73c0.2,1.56-0.79,3.02-2.31,3.41v7.12h5.46
			c0.43,0,0.78-0.35,0.78-0.78v-0.88c-1.52-0.39-2.51-1.86-2.31-3.41s1.52-2.73,3.09-2.73c1.57,0,2.9,1.17,3.09,2.73
			s-0.79,3.02-2.31,3.41v0.88c0,1.29-1.05,2.34-2.34,2.34h-5.46v3.12h11.89c4.7-0.07,8.45-3.94,8.38-8.63
			c0.04-4.17-2.93-7.76-7.03-8.51c-0.67-4.88-4.8-8.53-9.72-8.59c-3.37,0.01-6.5,1.77-8.27,4.64c-0.68-0.19-1.39-0.29-2.11-0.29
			c-3.96,0.05-7.29,2.99-7.81,6.92H9.48c-3.94,0.06-7.08,3.29-7.03,7.23C2.39,22.56,5.54,25.8,9.48,25.86L9.48,25.86z"/>
		<linearGradient id="Shape_5_" gradientUnits="userSpaceOnUse" x1="0.8852" y1="44.5753" x2="19.6011" y2="44.5753">
			<stop  offset="0" style="stop-color:#10B857;stop-opacity:0.99"/>
			<stop  offset="1" style="stop-color:#18B7EC"/>
		</linearGradient>
		<path id="Shape_1_" class="st4" d="M18.04,42.24H2.44c-0.86,0-1.56,0.7-1.56,1.56v1.56c0,0.86,0.7,1.56,1.56,1.56h0.78v-1.56
			c0-0.43,0.35-0.78,0.78-0.78c0.43,0,0.78,0.35,0.78,0.78v1.56h1.56v-1.56c0-0.43,0.35-0.78,0.78-0.78c0.43,0,0.78,0.35,0.78,0.78
			v1.56h10.14c0.86,0,1.56-0.7,1.56-1.56V43.8C19.6,42.94,18.9,42.24,18.04,42.24z"/>
		<linearGradient id="Rectangle-path_2_" gradientUnits="userSpaceOnUse" x1="2.4448" y1="39.8963" x2="18.0414" y2="39.8963">
			<stop  offset="0" style="stop-color:#10B857;stop-opacity:0.99"/>
			<stop  offset="1" style="stop-color:#18B7EC"/>
		</linearGradient>
		<path id="Rectangle-path" class="st5" d="M3.22,38.34h14.04c0.43,0,0.78,0.35,0.78,0.78v1.56c0,0.43-0.35,0.78-0.78,0.78H3.22
			c-0.43,0-0.78-0.35-0.78-0.78v-1.56C2.44,38.69,2.79,38.34,3.22,38.34z"/>
		<linearGradient id="Shape_6_" gradientUnits="userSpaceOnUse" x1="27.3994" y1="44.5753" x2="46.1153" y2="44.5753">
			<stop  offset="0" style="stop-color:#10B857;stop-opacity:0.99"/>
			<stop  offset="1" style="stop-color:#18B7EC"/>
		</linearGradient>
		<path id="Shape_2_" class="st6" d="M44.56,42.24h-15.6c-0.86,0-1.56,0.7-1.56,1.56v1.56c0,0.86,0.7,1.56,1.56,1.56h0.78v-1.56
			c0-0.43,0.35-0.78,0.78-0.78s0.78,0.35,0.78,0.78v1.56h1.56v-1.56c0-0.43,0.35-0.78,0.78-0.78c0.43,0,0.78,0.35,0.78,0.78v1.56
			h10.14c0.86,0,1.56-0.7,1.56-1.56V43.8C46.11,42.94,45.42,42.24,44.56,42.24z"/>
		<linearGradient id="Shape_7_" gradientUnits="userSpaceOnUse" x1="0.8852" y1="32.4879" x2="46.1153" y2="32.4879">
			<stop  offset="0" style="stop-color:#10B857;stop-opacity:0.99"/>
			<stop  offset="1" style="stop-color:#18B7EC"/>
		</linearGradient>
		<path id="Shape_3_" class="st7" d="M44.56,32.88h-7.02V32.1c0-1.29-1.05-2.34-2.34-2.34H24.28v-2.34h-1.56v2.34H11.8
			c-1.29,0-2.34,1.05-2.34,2.34v0.78H2.44c-0.86,0-1.56,0.7-1.56,1.56V36c0,0.86,0.7,1.56,1.56,1.56h0.78V36
			c0-0.43,0.35-0.78,0.78-0.78c0.43,0,0.78,0.35,0.78,0.78v1.56h1.56V36c0-0.43,0.35-0.78,0.78-0.78c0.43,0,0.78,0.35,0.78,0.78
			v1.56h10.14c0.86,0,1.56-0.7,1.56-1.56v-1.56c0-0.86-0.7-1.56-1.56-1.56h-7.02V32.1c0-0.43,0.35-0.78,0.78-0.78H35.2
			c0.43,0,0.78,0.35,0.78,0.78v0.78h-7.02c-0.86,0-1.56,0.7-1.56,1.56V36c0,0.86,0.7,1.56,1.56,1.56h0.78V36
			c0-0.43,0.35-0.78,0.78-0.78S31.3,35.57,31.3,36v1.56h1.56V36c0-0.43,0.35-0.78,0.78-0.78c0.43,0,0.78,0.35,0.78,0.78v1.56h10.14
			c0.86,0,1.56-0.7,1.56-1.56v-1.56C46.11,33.58,45.42,32.88,44.56,32.88z"/>
		<linearGradient id="Rectangle-path_3_" gradientUnits="userSpaceOnUse" x1="28.9591" y1="39.8963" x2="44.5557" y2="39.8963">
			<stop  offset="0" style="stop-color:#10B857;stop-opacity:0.99"/>
			<stop  offset="1" style="stop-color:#18B7EC"/>
		</linearGradient>
		<path id="Rectangle-path_1_" class="st8" d="M29.74,38.34h14.04c0.43,0,0.78,0.35,0.78,0.78v1.56c0,0.43-0.35,0.78-0.78,0.78
			H29.74c-0.43,0-0.78-0.35-0.78-0.78v-1.56C28.96,38.69,29.31,38.34,29.74,38.34z"/>
	</g>
</g>
</svg>
