<?xml version="1.0" encoding="utf-8"?>
<!-- Generator: Adobe Illustrator 25.1.0, SVG Export Plug-In . SVG Version: 6.00 Build 0)  -->
<svg version="1.1" id="Layer_1" xmlns="http://www.w3.org/2000/svg" xmlns:xlink="http://www.w3.org/1999/xlink" x="0px" y="0px"
	 viewBox="0 0 47 47" style="enable-background:new 0 0 47 47;" xml:space="preserve">
<style type="text/css">
	.st0{fill:url(#SVGID_1_);}
	.st1{fill:url(#SVGID_2_);}
	.st2{fill:url(#SVGID_3_);}
	.st3{fill:url(#SVGID_4_);}
	.st4{fill:url(#SVGID_5_);}
	.st5{fill:url(#SVGID_6_);}
	.st6{fill:url(#SVGID_7_);}
	.st7{fill:url(#SVGID_8_);}
</style>
<g>
	<linearGradient id="SVGID_1_" gradientUnits="userSpaceOnUse" x1="17.1238" y1="3.5581" x2="29.9849" y2="3.5581">
		<stop  offset="0" style="stop-color:#10B857;stop-opacity:0.99"/>
		<stop  offset="1" style="stop-color:#18B7EC"/>
	</linearGradient>
	<path class="st0" d="M29.98,3.47l-5.76-3.29c-0.42-0.24-0.94-0.24-1.36,0l-5.74,3.28l6.42,3.65L29.98,3.47z"/>
	<linearGradient id="SVGID_2_" gradientUnits="userSpaceOnUse" x1="15.7663" y1="41.3773" x2="22.1729" y2="41.3773">
		<stop  offset="0" style="stop-color:#10B857;stop-opacity:0.99"/>
		<stop  offset="1" style="stop-color:#18B7EC"/>
	</linearGradient>
	<path class="st1" d="M15.77,42.4c0,0.49,0.26,0.95,0.69,1.19l5.71,3.27v-7.32l-6.41-3.65V42.4z"/>
	<linearGradient id="SVGID_3_" gradientUnits="userSpaceOnUse" x1="24.9186" y1="41.3871" x2="31.3253" y2="41.3871">
		<stop  offset="0" style="stop-color:#10B857;stop-opacity:0.99"/>
		<stop  offset="1" style="stop-color:#18B7EC"/>
	</linearGradient>
	<path class="st2" d="M24.92,46.86l5.71-3.27c0.43-0.24,0.69-0.7,0.69-1.19v-6.49l-6.41,3.63L24.92,46.86z"/>
	<linearGradient id="SVGID_4_" gradientUnits="userSpaceOnUse" x1="0.1158" y1="26.354" x2="6.5224" y2="26.354">
		<stop  offset="0" style="stop-color:#10B857;stop-opacity:0.99"/>
		<stop  offset="1" style="stop-color:#18B7EC"/>
	</linearGradient>
	<path class="st3" d="M0.12,27.38c0,0.49,0.26,0.95,0.69,1.19l5.71,3.27v-7.32l-6.41-3.65V27.38z"/>
	<linearGradient id="SVGID_5_" gradientUnits="userSpaceOnUse" x1="40.4776" y1="26.3637" x2="46.8842" y2="26.3637">
		<stop  offset="0" style="stop-color:#10B857;stop-opacity:0.99"/>
		<stop  offset="1" style="stop-color:#18B7EC"/>
	</linearGradient>
	<path class="st4" d="M40.48,24.52v7.32l5.71-3.27c0.43-0.24,0.69-0.7,0.69-1.19v-6.49L40.48,24.52z"/>
	<linearGradient id="SVGID_6_" gradientUnits="userSpaceOnUse" x1="1.4733" y1="13.9938" x2="22.1729" y2="13.9938">
		<stop  offset="0" style="stop-color:#10B857;stop-opacity:0.99"/>
		<stop  offset="1" style="stop-color:#18B7EC"/>
	</linearGradient>
	<path class="st5" d="M22.17,16.81V9.49l-6.41-3.65v6.51c0,0.49,0.26,0.95,0.69,1.19l0.49,0.22l-5.36,3.16L8.58,15.2
		c-0.42-0.24-0.94-0.24-1.36,0l-5.74,3.28l6.42,3.65l11.4-6.97L22.17,16.81z"/>
	<linearGradient id="SVGID_7_" gradientUnits="userSpaceOnUse" x1="25.0704" y1="13.9938" x2="45.77" y2="13.9938">
		<stop  offset="0" style="stop-color:#10B857;stop-opacity:0.99"/>
		<stop  offset="1" style="stop-color:#18B7EC"/>
	</linearGradient>
	<path class="st6" d="M40.03,15.2c-0.42-0.24-0.94-0.24-1.36,0l-3.01,1.72l-5.21-3.22l0.34-0.16c0.43-0.24,0.69-0.7,0.69-1.19V5.85
		l-6.41,3.65v7.32l3.06-1.75l11.22,7.07l6.42-3.65L40.03,15.2z"/>
	<linearGradient id="SVGID_8_" gradientUnits="userSpaceOnUse" x1="9.268" y1="29.0171" x2="37.732" y2="29.0171">
		<stop  offset="0" style="stop-color:#10B857;stop-opacity:0.99"/>
		<stop  offset="1" style="stop-color:#18B7EC"/>
	</linearGradient>
	<path class="st7" d="M31.33,27.59l-5.41,3.6l-1.69-0.97c-0.42-0.24-0.94-0.24-1.36,0l-1.69,0.97l-5.5-3.66v-6.64l-6.41,3.63v7.32
		l4.26-2.44l4.98,3.32l-1.38,0.79l6.42,3.65l6.44-3.65l-1.4-0.8l4.93-3.29l4.21,2.41v-7.32l-6.41-3.65L31.33,27.59L31.33,27.59z"/>
</g>
</svg>
