<?xml version="1.0" encoding="utf-8"?>
<!-- Generator: Adobe Illustrator 25.1.0, SVG Export Plug-In . SVG Version: 6.00 Build 0)  -->
<svg version="1.1" id="Layer_1" xmlns="http://www.w3.org/2000/svg" xmlns:xlink="http://www.w3.org/1999/xlink" x="0px" y="0px"
	 viewBox="0 0 47 47" style="enable-background:new 0 0 47 47;" xml:space="preserve">
<style type="text/css">
	.st0{fill:url(#SVGID_1_);}
	.st1{fill:url(#SVGID_2_);}
	.st2{fill:url(#SVGID_3_);}
	.st3{fill:url(#SVGID_4_);}
	.st4{fill:url(#SVGID_5_);}
	.st5{fill:url(#SVGID_6_);}
	.st6{fill:url(#SVGID_7_);}
	.st7{fill:url(#SVGID_8_);}
	.st8{fill:url(#SVGID_9_);}
	.st9{fill:url(#SVGID_10_);}
	.st10{fill:url(#SVGID_11_);}
	.st11{fill:url(#SVGID_12_);}
	.st12{fill:url(#SVGID_13_);}
	.st13{fill:url(#SVGID_14_);}
	.st14{fill:url(#SVGID_15_);}
	.st15{fill:url(#SVGID_16_);}
	.st16{fill:url(#SVGID_17_);}
</style>
<g>
	<linearGradient id="SVGID_1_" gradientUnits="userSpaceOnUse" x1="-62.7275" y1="18.4954" x2="-57.7229" y2="18.4954">
		<stop  offset="0" style="stop-color:#10B857;stop-opacity:0.99"/>
		<stop  offset="1" style="stop-color:#18B7EC"/>
	</linearGradient>
	<path class="st0" d="M-57.72,18.5c0,1.38-1.12,2.5-2.5,2.5c-1.38,0-2.5-1.12-2.5-2.5s1.12-2.5,2.5-2.5
		C-58.84,15.99-57.72,17.11-57.72,18.5z"/>
	<linearGradient id="SVGID_2_" gradientUnits="userSpaceOnUse" x1="-62.7275" y1="1.8136" x2="-39.5264" y2="1.8136">
		<stop  offset="0" style="stop-color:#10B857;stop-opacity:0.99"/>
		<stop  offset="1" style="stop-color:#18B7EC"/>
	</linearGradient>
	<path class="st1" d="M-47.71,2.65c0-0.46,0.37-0.83,0.83-0.83h7.35c-0.35-1-1.29-1.66-2.35-1.67h-18.35c-1.38,0-2.5,1.12-2.5,2.5
		v0.83h15.01V2.65z"/>
	<linearGradient id="SVGID_3_" gradientUnits="userSpaceOnUse" x1="-64.3957" y1="25.9844" x2="-56.0547" y2="25.9844">
		<stop  offset="0" style="stop-color:#10B857;stop-opacity:0.99"/>
		<stop  offset="1" style="stop-color:#18B7EC"/>
	</linearGradient>
	<path class="st2" d="M-56.05,28.34v-1.5c0-2.3-1.87-4.17-4.17-4.17c-2.3,0-4.17,1.87-4.17,4.17v1.5c1.04,0.53,2.17,0.86,3.34,0.97
		v-1.63h1.67v1.63C-58.23,29.2-57.1,28.87-56.05,28.34z"/>
	<linearGradient id="SVGID_4_" gradientUnits="userSpaceOnUse" x1="-69.3579" y1="19.1326" x2="-51.0925" y2="19.1326">
		<stop  offset="0" style="stop-color:#10B857;stop-opacity:0.99"/>
		<stop  offset="1" style="stop-color:#18B7EC"/>
	</linearGradient>
	<path class="st3" d="M-69.36,19.33h1.63V21h-1.62c0.21,2.31,1.29,4.46,3.01,6.01c0.09,0.08,0.19,0.15,0.28,0.23v-0.39
		c0-2.18,1.22-4.18,3.15-5.18c-1.34-1.13-1.83-2.97-1.23-4.62c0.6-1.65,2.17-2.74,3.92-2.74c1.75,0,3.32,1.09,3.92,2.74
		c0.6,1.65,0.11,3.49-1.23,4.62c1.93,1,3.15,3,3.15,5.18v0.4c0.09-0.08,0.19-0.15,0.28-0.23c1.73-1.55,2.81-3.7,3.01-6.01h-1.62
		v-1.67h1.63c-0.41-4.4-3.9-7.89-8.3-8.3v1.63h-1.67v-1.63C-65.46,11.44-68.95,14.93-69.36,19.33z"/>
	<linearGradient id="SVGID_5_" gradientUnits="userSpaceOnUse" x1="-46.0456" y1="7.6522" x2="-29.3637" y2="7.6522">
		<stop  offset="0" style="stop-color:#10B857;stop-opacity:0.99"/>
		<stop  offset="1" style="stop-color:#18B7EC"/>
	</linearGradient>
	<path class="st4" d="M-46.05,11.82h16.68V3.48h-16.68V11.82z M-39.37,5.15h8.34v1.67h-8.34V5.15z M-44.38,5.15h3.34v1.67h-3.34
		V5.15z M-44.38,8.49h13.35v1.67h-13.35V8.49z"/>
	<linearGradient id="SVGID_6_" gradientUnits="userSpaceOnUse" x1="-62.7275" y1="44.3523" x2="-39.3729" y2="44.3523">
		<stop  offset="0" style="stop-color:#10B857;stop-opacity:0.99"/>
		<stop  offset="1" style="stop-color:#18B7EC"/>
	</linearGradient>
	<path class="st5" d="M-56.05,43.52c0,0.46-0.37,0.83-0.83,0.83h-5.84c0,1.38,1.12,2.5,2.5,2.5h18.35c1.38,0,2.5-1.12,2.5-2.5v-2.5
		h-16.68V43.52z M-51.88,43.52h1.67v1.67h-1.67V43.52z"/>
	<linearGradient id="SVGID_7_" gradientUnits="userSpaceOnUse" x1="-74.4048" y1="40.1819" x2="-57.7229" y2="40.1819">
		<stop  offset="0" style="stop-color:#10B857;stop-opacity:0.99"/>
		<stop  offset="1" style="stop-color:#18B7EC"/>
	</linearGradient>
	<path class="st6" d="M-57.72,37.68H-74.4v5h16.68V37.68z M-68.57,41.02h-4.17v-1.67h4.17V41.02z M-59.39,41.02h-7.51v-1.67h7.51
		V41.02z"/>
	<linearGradient id="SVGID_8_" gradientUnits="userSpaceOnUse" x1="-42.3256" y1="24.1423" x2="-27.6957" y2="24.1423">
		<stop  offset="0" style="stop-color:#10B857;stop-opacity:0.99"/>
		<stop  offset="1" style="stop-color:#18B7EC"/>
	</linearGradient>
	<path class="st7" d="M-28.68,16.83c-0.24,0-0.47,0.09-0.65,0.25l-13,11.47l2.92,2.91l11.47-13c0.25-0.29,0.32-0.7,0.16-1.05
		C-27.94,17.05-28.29,16.83-28.68,16.83z"/>
	<linearGradient id="SVGID_9_" gradientUnits="userSpaceOnUse" x1="-48.1919" y1="33.0988" x2="-40.2204" y2="33.0988">
		<stop  offset="0" style="stop-color:#10B857;stop-opacity:0.99"/>
		<stop  offset="1" style="stop-color:#18B7EC"/>
	</linearGradient>
	<path class="st8" d="M-47.71,33.51v1.47c0,0.65-0.16,1.29-0.48,1.86h3.81c2.17,0,3.98-1.67,4.16-3.84l-3.66-3.66
		C-46.04,29.53-47.71,31.34-47.71,33.51z"/>
	<linearGradient id="SVGID_10_" gradientUnits="userSpaceOnUse" x1="-62.7275" y1="22.6659" x2="-39.3729" y2="22.6659">
		<stop  offset="0" style="stop-color:#10B857;stop-opacity:0.99"/>
		<stop  offset="1" style="stop-color:#18B7EC"/>
	</linearGradient>
	<path class="st9" d="M-44.38,38.51h-5.84c-0.39,0-0.73-0.26-0.82-0.64c-0.09-0.38,0.1-0.77,0.45-0.94
		c0.74-0.37,1.21-1.12,1.21-1.95v-1.47c0-3.09,2.42-5.65,5.51-5.82l4.5-3.97V13.49h-7.51c-0.46,0-0.83-0.37-0.83-0.83V5.15h-15.01
		v4.47c0.55-0.13,1.11-0.22,1.67-0.26V6.82h1.67v2.54c5.32,0.42,9.55,4.64,9.97,9.97h2.54V21h-2.55c-0.39,5.33-4.63,9.57-9.96,9.97
		v2.54h-1.67v-2.54c-0.56-0.04-1.12-0.13-1.67-0.26v5.31h5.84c0.46,0,0.83,0.37,0.83,0.83v3.34h16.68v-4.52
		C-40.42,37.43-42.32,38.51-44.38,38.51z"/>
	<linearGradient id="SVGID_11_" gradientUnits="userSpaceOnUse" x1="-74.4048" y1="5.984" x2="-67.732" y2="5.984">
		<stop  offset="0" style="stop-color:#10B857;stop-opacity:0.99"/>
		<stop  offset="1" style="stop-color:#18B7EC"/>
	</linearGradient>
	<path class="st10" d="M-67.73,3.48h-6.67v5h6.67V3.48z M-69.4,6.82h-3.34V5.15h3.34V6.82z"/>
</g>
<g id="Eternity">
	<linearGradient id="SVGID_12_" gradientUnits="userSpaceOnUse" x1="15.1471" y1="23.498" x2="31.847" y2="23.498">
		<stop  offset="0" style="stop-color:#10B857;stop-opacity:0.99"/>
		<stop  offset="1" style="stop-color:#18B7EC"/>
	</linearGradient>
	<circle class="st11" cx="23.5" cy="23.5" r="8.35"/>
	<linearGradient id="SVGID_13_" gradientUnits="userSpaceOnUse" x1="5.1271" y1="23.498" x2="41.867" y2="23.498">
		<stop  offset="0" style="stop-color:#10B857;stop-opacity:0.99"/>
		<stop  offset="1" style="stop-color:#18B7EC"/>
	</linearGradient>
	<path class="st12" d="M37.27,27.33l4.59-1.15v-5.38l-4.59-1.15c-1.16-0.31-1.85-1.51-1.54-2.67c0.05-0.18,0.12-0.36,0.22-0.52
		l2.43-4.06l-3.8-3.8l-4.06,2.43c-1.04,0.6-2.38,0.24-2.98-0.8c-0.09-0.16-0.17-0.34-0.22-0.52l-1.15-4.59h-5.38l-1.15,4.59
		c-0.31,1.16-1.51,1.85-2.67,1.54c-0.18-0.05-0.36-0.12-0.52-0.22l-4.06-2.43l-3.8,3.8l2.43,4.06c0.6,1.04,0.24,2.38-0.8,2.98
		c-0.16,0.09-0.34,0.17-0.52,0.22l-4.59,1.15v5.38l4.59,1.15c1.16,0.31,1.85,1.51,1.54,2.67c-0.05,0.18-0.12,0.36-0.22,0.52
		l-2.43,4.06l3.8,3.8l4.06-2.43c1.04-0.6,2.38-0.24,2.98,0.8c0.09,0.16,0.17,0.34,0.22,0.52l1.15,4.59h5.38l1.15-4.59
		c0.31-1.16,1.51-1.85,2.67-1.54c0.18,0.05,0.36,0.12,0.52,0.22l4.06,2.43l3.8-3.8l-2.43-4.06c-0.6-1.05-0.24-2.38,0.81-2.98
		C36.92,27.45,37.09,27.38,37.27,27.33L37.27,27.33z M23.5,33.52c-5.53,0-10.02-4.49-10.02-10.02s4.49-10.02,10.02-10.02
		s10.02,4.49,10.02,10.02C33.51,29.03,29.03,33.51,23.5,33.52z"/>
	<linearGradient id="SVGID_14_" gradientUnits="userSpaceOnUse" x1="0.1208" y1="18.1852" x2="39.1559" y2="18.1852">
		<stop  offset="0" style="stop-color:#10B857;stop-opacity:0.99"/>
		<stop  offset="1" style="stop-color:#18B7EC"/>
	</linearGradient>
	<path class="st13" d="M2.82,16.88C6.4,5.72,18.19-0.58,29.46,2.63c0.04,1.05,0.73,1.97,1.74,2.29c0.06,0.02,0.13,0.04,0.2,0.04
		l6.87,0.44h0.05c0.46,0,0.84-0.37,0.84-0.83c0-0.29-0.15-0.56-0.4-0.71l-5.85-3.62c-0.06-0.04-0.12-0.07-0.18-0.08
		c-1.02-0.33-2.13,0.03-2.76,0.89C17.55-2.53,4.6,4.64,1.03,17.05c-1.88,6.55-0.81,13.6,2.93,19.29l1.4-0.92
		C1.74,29.95,0.81,23.13,2.82,16.88L2.82,16.88z"/>
	<linearGradient id="SVGID_15_" gradientUnits="userSpaceOnUse" x1="5.0202" y1="38.2837" x2="7.9732" y2="38.2837">
		<stop  offset="0" style="stop-color:#10B857;stop-opacity:0.99"/>
		<stop  offset="1" style="stop-color:#18B7EC"/>
	</linearGradient>
	<path class="st14" d="M7.74,38.44c-0.43-0.45-0.84-0.93-1.23-1.42c-0.29-0.36-0.81-0.42-1.17-0.13c-0.36,0.29-0.42,0.81-0.13,1.17
		l0,0c0.42,0.53,0.87,1.04,1.33,1.53c0.32,0.34,0.85,0.35,1.18,0.03C8.05,39.31,8.06,38.78,7.74,38.44L7.74,38.44z"/>
	<linearGradient id="SVGID_16_" gradientUnits="userSpaceOnUse" x1="7.842" y1="28.8253" x2="46.8792" y2="28.8253">
		<stop  offset="0" style="stop-color:#10B857;stop-opacity:0.99"/>
		<stop  offset="1" style="stop-color:#18B7EC"/>
	</linearGradient>
	<path class="st15" d="M43.05,10.68l-1.39,0.91c6.57,10.03,3.77,23.49-6.26,30.06c-5.28,3.46-11.8,4.45-17.86,2.72
		c-0.04-1.05-0.73-1.97-1.74-2.29c-0.06-0.02-0.13-0.04-0.2-0.04l-6.87-0.44C8.35,41.57,8,41.81,7.88,42.18
		c-0.12,0.36,0.03,0.76,0.35,0.96l5.85,3.62c0.06,0.04,0.12,0.07,0.18,0.08c0.25,0.08,0.51,0.12,0.77,0.13c0.4,0,0.79-0.1,1.14-0.28
		c0.34-0.17,0.63-0.43,0.86-0.73c12.4,3.57,25.35-3.59,28.92-15.99C47.85,23.42,46.79,16.38,43.05,10.68L43.05,10.68z"/>
	<linearGradient id="SVGID_17_" gradientUnits="userSpaceOnUse" x1="38.9826" y1="8.6989" x2="41.9739" y2="8.6989">
		<stop  offset="0" style="stop-color:#10B857;stop-opacity:0.99"/>
		<stop  offset="1" style="stop-color:#18B7EC"/>
	</linearGradient>
	<path class="st16" d="M39.25,8.55C39.68,9,40.1,9.49,40.48,9.98c0.16,0.2,0.4,0.32,0.66,0.32c0.46,0,0.84-0.38,0.83-0.84
		c0-0.19-0.07-0.37-0.18-0.52c-0.43-0.53-0.87-1.04-1.33-1.53C40.17,7.05,39.65,7,39.29,7.29c-0.36,0.29-0.41,0.82-0.12,1.17
		C39.2,8.5,39.22,8.52,39.25,8.55z"/>
</g>
</svg>
