<?xml version="1.0" encoding="utf-8"?>
<!-- Generator: Adobe Illustrator 25.1.0, SVG Export Plug-In . SVG Version: 6.00 Build 0)  -->
<svg version="1.1" id="Layer_1" xmlns="http://www.w3.org/2000/svg" xmlns:xlink="http://www.w3.org/1999/xlink" x="0px" y="0px"
	 viewBox="0 0 46 46" style="enable-background:new 0 0 46 46;" xml:space="preserve">
<style type="text/css">
	.st0{fill:#FFFFFF;}
	.st1{fill:url(#SVGID_1_);}
	.st2{fill:url(#SVGID_2_);}
	.st3{fill:url(#SVGID_3_);}
	.st4{fill:url(#SVGID_4_);}
	.st5{fill:url(#SVGID_5_);}
	.st6{fill:url(#SVGID_6_);}
</style>
<circle class="st0" cx="23" cy="23" r="23"/>
<g>
	<linearGradient id="SVGID_1_" gradientUnits="userSpaceOnUse" x1="30.6521" y1="29.2958" x2="36.7474" y2="29.2958">
		<stop  offset="0" style="stop-color:#10B857;stop-opacity:0.99"/>
		<stop  offset="1" style="stop-color:#18B7EC"/>
	</linearGradient>
	<path class="st1" d="M32.78,23.93h-2.13c0.22,0.59,0.34,1.23,0.34,1.9v8.04c0,0.28-0.05,0.55-0.14,0.79h3.52
		c1.31,0,2.38-1.07,2.38-2.38V27.9C36.75,25.71,34.97,23.93,32.78,23.93z"/>
	<linearGradient id="SVGID_2_" gradientUnits="userSpaceOnUse" x1="9.2526" y1="29.2959" x2="15.348" y2="29.2959">
		<stop  offset="0" style="stop-color:#10B857;stop-opacity:0.99"/>
		<stop  offset="1" style="stop-color:#18B7EC"/>
	</linearGradient>
	<path class="st2" d="M15.35,23.93h-2.13c-2.19,0-3.97,1.78-3.97,3.97v4.38c0,1.31,1.07,2.38,2.38,2.38h3.52
		c-0.09-0.25-0.14-0.52-0.14-0.79v-8.04C15.01,25.16,15.13,24.52,15.35,23.93z"/>
	<linearGradient id="SVGID_3_" gradientUnits="userSpaceOnUse" x1="16.6005" y1="28.262" x2="29.3996" y2="28.262">
		<stop  offset="0" style="stop-color:#10B857;stop-opacity:0.99"/>
		<stop  offset="1" style="stop-color:#18B7EC"/>
	</linearGradient>
	<path class="st3" d="M25.43,21.86h-4.86c-2.19,0-3.97,1.78-3.97,3.97v8.04c0,0.44,0.36,0.79,0.79,0.79h11.21
		c0.44,0,0.79-0.36,0.79-0.79v-8.04C29.4,23.64,27.62,21.86,25.43,21.86z"/>
	<linearGradient id="SVGID_4_" gradientUnits="userSpaceOnUse" x1="18.2268" y1="16.1117" x2="27.7733" y2="16.1117">
		<stop  offset="0" style="stop-color:#10B857;stop-opacity:0.99"/>
		<stop  offset="1" style="stop-color:#18B7EC"/>
	</linearGradient>
	<path class="st4" d="M20.67,20.27c0.69,0.39,1.49,0.61,2.33,0.61c0.85,0,1.64-0.22,2.33-0.61c1.46-0.82,2.44-2.38,2.44-4.16
		c0-2.63-2.14-4.77-4.77-4.77c-2.63,0-4.77,2.14-4.77,4.77C18.23,17.9,19.21,19.46,20.67,20.27z"/>
	<linearGradient id="SVGID_5_" gradientUnits="userSpaceOnUse" x1="11.0486" y1="19.3572" x2="18.188" y2="19.3572">
		<stop  offset="0" style="stop-color:#10B857;stop-opacity:0.99"/>
		<stop  offset="1" style="stop-color:#18B7EC"/>
	</linearGradient>
	<path class="st5" d="M17.77,21.03c0.27-0.5,0.42-1.07,0.42-1.68c0-1.97-1.6-3.57-3.57-3.57c-1.97,0-3.57,1.6-3.57,3.57
		s1.6,3.57,3.57,3.57c0.5,0,0.97-0.1,1.41-0.29C16.77,22.32,17.39,21.75,17.77,21.03z"/>
	<linearGradient id="SVGID_6_" gradientUnits="userSpaceOnUse" x1="27.812" y1="19.3572" x2="34.9515" y2="19.3572">
		<stop  offset="0" style="stop-color:#10B857;stop-opacity:0.99"/>
		<stop  offset="1" style="stop-color:#18B7EC"/>
	</linearGradient>
	<path class="st6" d="M34.95,19.36c0-1.97-1.6-3.57-3.57-3.57c-1.97,0-3.57,1.6-3.57,3.57c0,0.61,0.15,1.18,0.42,1.68
		c0.38,0.71,1,1.28,1.74,1.6c0.43,0.19,0.91,0.29,1.41,0.29C33.35,22.93,34.95,21.33,34.95,19.36z"/>
</g>
</svg>
