<?xml version="1.0" encoding="utf-8"?>
<!-- Generator: Adobe Illustrator 25.1.0, SVG Export Plug-In . SVG Version: 6.00 Build 0)  -->
<svg version="1.1" id="Layer_1" xmlns="http://www.w3.org/2000/svg" xmlns:xlink="http://www.w3.org/1999/xlink" x="0px" y="0px"
	 viewBox="0 0 46 46" style="enable-background:new 0 0 46 46;" xml:space="preserve">
<style type="text/css">
	.st0{fill:#FFFFFF;}
	.st1{fill:url(#SVGID_1_);}
	.st2{fill:url(#SVGID_2_);}
	.st3{fill:url(#SVGID_3_);}
</style>
<circle class="st0" cx="23" cy="23" r="23"/>
<g>
	<linearGradient id="SVGID_1_" gradientUnits="userSpaceOnUse" x1="19.8073" y1="16.3731" x2="22.8803" y2="16.3731">
		<stop  offset="0" style="stop-color:#10B857;stop-opacity:0.99"/>
		<stop  offset="1" style="stop-color:#18B7EC"/>
	</linearGradient>
	<path class="st1" d="M19.96,17.47h2.77c0.49-1.01-0.25-2.2-1.38-2.2C20.21,15.27,19.47,16.46,19.96,17.47z"/>
	<linearGradient id="SVGID_2_" gradientUnits="userSpaceOnUse" x1="14.4354" y1="13.6865" x2="28.2522" y2="13.6865">
		<stop  offset="0" style="stop-color:#10B857;stop-opacity:0.99"/>
		<stop  offset="1" style="stop-color:#18B7EC"/>
	</linearGradient>
	<path class="st2" d="M21.34,13.74c1.96,0,3.42,1.81,3,3.74h3.91v-1.69c0-0.28-0.23-0.51-0.51-0.51h-1.03
		c-0.12-0.41-0.28-0.8-0.49-1.17l0.73-0.73c0.2-0.2,0.2-0.52,0-0.72l-1.45-1.45c-0.2-0.2-0.52-0.2-0.72,0l-0.73,0.73
		c-0.37-0.2-0.76-0.37-1.17-0.49v-1.03c0-0.28-0.23-0.51-0.51-0.51h-2.05c-0.28,0-0.51,0.23-0.51,0.51v1.03
		c-0.41,0.12-0.8,0.28-1.17,0.49l-0.73-0.73c-0.2-0.2-0.52-0.2-0.72,0l-1.45,1.45c-0.2,0.2-0.2,0.52,0,0.72l0.73,0.73
		c-0.2,0.37-0.37,0.76-0.49,1.17h-1.03c-0.28,0-0.51,0.23-0.51,0.51v1.69h3.91C17.92,15.55,19.39,13.74,21.34,13.74L21.34,13.74z"/>
	<linearGradient id="SVGID_3_" gradientUnits="userSpaceOnUse" x1="11.7124" y1="27.5544" x2="34.2876" y2="27.5544">
		<stop  offset="0" style="stop-color:#10B857;stop-opacity:0.99"/>
		<stop  offset="1" style="stop-color:#18B7EC"/>
	</linearGradient>
	<path class="st3" d="M34.16,26.16l-3.01-4.5c-0.05-0.91-0.23-1.8-0.55-2.64H12.28c-1.73,4.69,0.64,10.11,5.58,11.86v4.46
		c0,0.42,0.34,0.77,0.77,0.77h8.75c0.42,0,0.77-0.34,0.77-0.77v-3.94h2.25c0.42,0,0.77-0.34,0.77-0.77v-3.28h2.36
		C34.13,27.35,34.5,26.67,34.16,26.16z"/>
</g>
</svg>
