<?xml version="1.0" encoding="utf-8"?>
<!-- Generator: Adobe Illustrator 25.1.0, SVG Export Plug-In . SVG Version: 6.00 Build 0)  -->
<svg version="1.1" id="Layer_1" xmlns="http://www.w3.org/2000/svg" xmlns:xlink="http://www.w3.org/1999/xlink" x="0px" y="0px"
	 viewBox="0 0 46 46" style="enable-background:new 0 0 46 46;" xml:space="preserve">
<style type="text/css">
	.st0{fill:#FFFFFF;}
	.st1{fill:url(#SVGID_1_);}
	.st2{fill:url(#SVGID_2_);}
</style>
<circle class="st0" cx="23" cy="23" r="23"/>
<g>
	<linearGradient id="SVGID_1_" gradientUnits="userSpaceOnUse" x1="11.0839" y1="21.6032" x2="30.727" y2="21.6032">
		<stop  offset="0" style="stop-color:#10B857;stop-opacity:0.99"/>
		<stop  offset="1" style="stop-color:#18B7EC"/>
	</linearGradient>
	<path class="st1" d="M20.74,27.19h7.89c1.15,0,2.09-0.94,2.09-2.09c0-6.52,0-4.64,0-11.17c0-1.15-0.94-2.09-2.09-2.09H13.18
		c-1.16,0-2.09,0.94-2.09,2.09v11.17c0,1.16,0.94,2.09,2.09,2.09c1.47,0,1.66,0,1.66,0h0.43v3.49c0,0.62,0.75,0.93,1.19,0.49
		c1.95-1.95,0.58-0.58,3.78-3.78C20.38,27.26,20.55,27.19,20.74,27.19z M14.57,16.02h9.87c0.39,0,0.7,0.31,0.7,0.7
		s-0.31,0.7-0.7,0.7h-9.87c-0.39,0-0.7-0.31-0.7-0.7S14.19,16.02,14.57,16.02z M14.57,18.81h12.66c0.39,0,0.7,0.31,0.7,0.7
		c0,0.39-0.31,0.7-0.7,0.7H14.57c-0.39,0-0.7-0.31-0.7-0.7C13.88,19.12,14.19,18.81,14.57,18.81z M14.57,23
		c-0.39,0-0.7-0.31-0.7-0.7c0-0.39,0.31-0.7,0.7-0.7h7.08c0.39,0,0.7,0.31,0.7,0.7c0,0.39-0.31,0.7-0.7,0.7H14.57z"/>
	<linearGradient id="SVGID_2_" gradientUnits="userSpaceOnUse" x1="19.6314" y1="24.3965" x2="34.9161" y2="24.3965">
		<stop  offset="0" style="stop-color:#10B857;stop-opacity:0.99"/>
		<stop  offset="1" style="stop-color:#18B7EC"/>
	</linearGradient>
	<path class="st2" d="M32.82,14.62h-0.69v10.47c0,1.92-1.58,3.49-3.5,3.49h-7.51l-1.49,1.39h5.92l3.98,3.99
		c0.44,0.44,1.19,0.13,1.19-0.49v-3.5h2.09c1.16,0,2.09-0.93,2.09-2.09V16.72C34.92,15.56,33.98,14.62,32.82,14.62z"/>
</g>
</svg>
