<?xml version="1.0" encoding="utf-8"?>
<!-- Generator: Adobe Illustrator 25.1.0, SVG Export Plug-In . SVG Version: 6.00 Build 0)  -->
<svg version="1.1" id="Layer_1" xmlns="http://www.w3.org/2000/svg" xmlns:xlink="http://www.w3.org/1999/xlink" x="0px" y="0px"
	 viewBox="0 0 46 46" style="enable-background:new 0 0 46 46;" xml:space="preserve">
<style type="text/css">
	.st0{fill:#FFFFFF;}
	.st1{fill:url(#SVGID_1_);}
	.st2{fill:url(#SVGID_2_);}
	.st3{fill:url(#SVGID_3_);}
	.st4{fill:url(#SVGID_4_);}
</style>
<circle class="st0" cx="23" cy="23" r="23"/>
<g>
	<linearGradient id="SVGID_1_" gradientUnits="userSpaceOnUse" x1="20.2262" y1="12.7341" x2="24.8314" y2="12.7341">
		<stop  offset="0" style="stop-color:#10B857;stop-opacity:0.99"/>
		<stop  offset="1" style="stop-color:#18B7EC"/>
	</linearGradient>
	<path class="st1" d="M23.41,14.86c1.17-0.49,1.73-1.83,1.25-3.01c-0.49-1.17-1.83-1.73-3.01-1.25c-1.17,0.49-1.73,1.83-1.25,3.01
		C20.89,14.79,22.24,15.35,23.41,14.86z"/>
	<linearGradient id="SVGID_2_" gradientUnits="userSpaceOnUse" x1="18.3247" y1="18.6848" x2="27.6721" y2="18.6848">
		<stop  offset="0" style="stop-color:#10B857;stop-opacity:0.99"/>
		<stop  offset="1" style="stop-color:#18B7EC"/>
	</linearGradient>
	<path class="st2" d="M18.97,21.27h8.05c0.42,0,0.73-0.4,0.63-0.8l-0.6-2.41c-0.29-1.15-1.32-1.96-2.51-1.96h-3.08
		c-1.19,0-2.22,0.81-2.51,1.96l-0.6,2.41C18.24,20.88,18.55,21.27,18.97,21.27z"/>
	<linearGradient id="SVGID_3_" gradientUnits="userSpaceOnUse" x1="14.9062" y1="27.382" x2="36.043" y2="27.382">
		<stop  offset="0" style="stop-color:#10B857;stop-opacity:0.99"/>
		<stop  offset="1" style="stop-color:#18B7EC"/>
	</linearGradient>
	<path class="st3" d="M35.69,22.89c-0.34-0.44-0.85-0.67-1.37-0.67c-0.44,0-0.88,0.17-1.22,0.5l-2.37,2.37
		c0.2,0.37,0.31,0.8,0.31,1.25c0,1.49-1.21,2.7-2.7,2.7h-6.47c-0.42,0-0.76-0.34-0.76-0.76s0.34-0.76,0.76-0.76h6.47
		c0.65,0,1.17-0.53,1.17-1.17c0-0.65-0.53-1.17-1.17-1.17h-3.16c-0.57,0-1.11-0.26-1.47-0.71l-0.35-0.44
		c-0.34-0.31-0.79-0.49-1.26-0.49h-2.28c-0.67,0-1.31,0.24-1.82,0.67l-3.09,2.62l3.25,5.64c0.02,0.03,0.03,0.06,0.05,0.09h8.8
		c0.75,0,1.47-0.3,2-0.83l6.53-6.56C36.15,24.54,36.21,23.57,35.69,22.89z"/>
	<linearGradient id="SVGID_4_" gradientUnits="userSpaceOnUse" x1="9.957" y1="31.053" x2="16.9739" y2="31.053">
		<stop  offset="0" style="stop-color:#10B857;stop-opacity:0.99"/>
		<stop  offset="1" style="stop-color:#18B7EC"/>
	</linearGradient>
	<path class="st4" d="M13.27,27.05c-0.19-0.33-0.53-0.51-0.88-0.51c-0.17,0-0.35,0.04-0.51,0.14l-1.41,0.82
		c-0.49,0.28-0.65,0.9-0.37,1.39l3.57,6.18c0.19,0.33,0.53,0.51,0.88,0.51c0.17,0,0.35-0.04,0.51-0.14l1.41-0.82
		c0.49-0.28,0.65-0.9,0.37-1.39L13.27,27.05z"/>
</g>
</svg>
