<?xml version="1.0" encoding="utf-8"?>
<!-- Generator: Adobe Illustrator 25.1.0, SVG Export Plug-In . SVG Version: 6.00 Build 0)  -->
<svg version="1.1" id="Layer_1" xmlns="http://www.w3.org/2000/svg" xmlns:xlink="http://www.w3.org/1999/xlink" x="0px" y="0px"
	 viewBox="0 0 33 33" style="enable-background:new 0 0 33 33;" xml:space="preserve">
<style type="text/css">
	.st0{fill:url(#SVGID_1_);}
	.st1{fill:url(#SVGID_2_);}
	.st2{fill:url(#SVGID_3_);}
	.st3{fill:url(#SVGID_4_);}
	.st4{fill:url(#SVGID_5_);}
	.st5{fill:url(#SVGID_6_);}
	.st6{fill:url(#SVGID_7_);}
	.st7{fill:url(#SVGID_8_);}
	.st8{fill:url(#SVGID_9_);}
	.st9{fill:url(#SVGID_10_);}
	.st10{fill:url(#SVGID_11_);}
	.st11{fill:url(#SVGID_12_);}
	.st12{fill:url(#SVGID_13_);}
	.st13{fill:url(#SVGID_14_);}
	.st14{fill:url(#SVGID_15_);}
</style>
<linearGradient id="SVGID_1_" gradientUnits="userSpaceOnUse" x1="23.2275" y1="23.4363" x2="24.573" y2="23.4363">
	<stop  offset="0" style="stop-color:#10B857;stop-opacity:0.99"/>
	<stop  offset="1" style="stop-color:#18B7EC"/>
</linearGradient>
<rect x="23.23" y="22.76" class="st0" width="1.35" height="1.35"/>
<g>
	<linearGradient id="SVGID_2_" gradientUnits="userSpaceOnUse" x1="17.1508" y1="18.3335" x2="19.6018" y2="18.3335">
		<stop  offset="0" style="stop-color:#10B857;stop-opacity:0.99"/>
		<stop  offset="1" style="stop-color:#18B7EC"/>
	</linearGradient>
	<path class="st1" d="M19.11,18.78c0.1-0.54,0.27-1.05,0.49-1.54l-0.52-0.14l-1.93,1.16l1.62,1.3L19.11,18.78z"/>
	<linearGradient id="SVGID_3_" gradientUnits="userSpaceOnUse" x1="12.1765" y1="9.1805" x2="20.1381" y2="9.1805">
		<stop  offset="0" style="stop-color:#10B857;stop-opacity:0.99"/>
		<stop  offset="1" style="stop-color:#18B7EC"/>
	</linearGradient>
	<path class="st2" d="M20.14,7.19c0-0.33-0.1-0.66-0.28-0.93h-1.39c-1.26,0-2.4-0.58-3.14-1.54l-2.11,0.91
		c-0.63,0.27-1.03,0.88-1.03,1.57v2.48c0,2.2,1.79,3.98,3.98,3.98s3.98-1.79,3.98-3.98V7.19z"/>
	<linearGradient id="SVGID_4_" gradientUnits="userSpaceOnUse" x1="15.0199" y1="19.6994" x2="17.2947" y2="19.6994">
		<stop  offset="0" style="stop-color:#10B857;stop-opacity:0.99"/>
		<stop  offset="1" style="stop-color:#18B7EC"/>
	</linearGradient>
	<path class="st3" d="M15.59,20.47h1.14c0.31,0,0.57-0.26,0.57-0.57v-0.07l-1.14-0.91l-1.14,0.91v0.07
		C15.02,20.22,15.27,20.47,15.59,20.47z"/>
	<linearGradient id="SVGID_5_" gradientUnits="userSpaceOnUse" x1="13.9502" y1="15.9842" x2="18.3643" y2="15.9842">
		<stop  offset="0" style="stop-color:#10B857;stop-opacity:0.99"/>
		<stop  offset="1" style="stop-color:#18B7EC"/>
	</linearGradient>
	<path class="st4" d="M18.36,16.21l-0.36-1.78c-0.57,0.22-1.2,0.35-1.85,0.35c-0.65,0-1.28-0.13-1.85-0.35l-0.36,1.78l2.21,1.32
		L18.36,16.21z"/>
	<linearGradient id="SVGID_6_" gradientUnits="userSpaceOnUse" x1="20.1381" y1="19.9039" x2="30.3743" y2="19.9039">
		<stop  offset="0" style="stop-color:#10B857;stop-opacity:0.99"/>
		<stop  offset="1" style="stop-color:#18B7EC"/>
	</linearGradient>
	<path class="st5" d="M20.14,19.9c0,2.82,2.3,5.12,5.12,5.12s5.12-2.3,5.12-5.12s-2.3-5.12-5.12-5.12S20.14,17.08,20.14,19.9z
		 M23.55,20.47h1.14v0.57c0,0.31,0.25,0.57,0.57,0.57h0.57v-0.57c0-0.31-0.25-0.57-0.57-0.57c-0.94,0-1.71-0.77-1.71-1.71v-1.71
		h1.14v-1.14h1.14v1.24c0.66,0.24,1.14,0.86,1.14,1.6v0.57h-1.14v-0.57c0-0.31-0.25-0.57-0.57-0.57h-0.57v0.57
		c0,0.31,0.25,0.57,0.57,0.57c0.94,0,1.71,0.77,1.71,1.71v1.71h-1.14v1.14h-1.14v-1.24c-0.66-0.24-1.14-0.86-1.14-1.6V20.47z"/>
	<linearGradient id="SVGID_7_" gradientUnits="userSpaceOnUse" x1="21.0377" y1="6.5037" x2="23.5502" y2="6.5037">
		<stop  offset="0" style="stop-color:#10B857;stop-opacity:0.99"/>
		<stop  offset="1" style="stop-color:#18B7EC"/>
	</linearGradient>
	<path class="st6" d="M21.04,6.07c0.15,0.35,0.24,0.73,0.24,1.12v2.48c0,0.13-0.01,0.26-0.02,0.39c0.31-0.15,0.58-0.38,0.75-0.68
		l1.13-1.97c0.27-0.48,0.42-1.02,0.42-1.57c0-0.7-0.24-1.39-0.67-1.94l-0.73-0.94c0.16,0.31,0.26,0.66,0.26,1.03
		C22.41,4.92,21.85,5.72,21.04,6.07L21.04,6.07z"/>
	<linearGradient id="SVGID_8_" gradientUnits="userSpaceOnUse" x1="12.5661" y1="18.3329" x2="15.1632" y2="18.3329">
		<stop  offset="0" style="stop-color:#10B857;stop-opacity:0.99"/>
		<stop  offset="1" style="stop-color:#18B7EC"/>
	</linearGradient>
	<path class="st7" d="M12.57,17.29l0.98,2.28l1.62-1.3l-1.93-1.16L12.57,17.29z"/>
	<linearGradient id="SVGID_9_" gradientUnits="userSpaceOnUse" x1="14.5638" y1="24.4533" x2="17.7507" y2="24.4533">
		<stop  offset="0" style="stop-color:#10B857;stop-opacity:0.99"/>
		<stop  offset="1" style="stop-color:#18B7EC"/>
	</linearGradient>
	<path class="st8" d="M15.6,21.61l-1.03,5.69h3.19l-1.03-5.69H15.6z"/>
	<linearGradient id="SVGID_10_" gradientUnits="userSpaceOnUse" x1="20.1381" y1="28.8458" x2="30.3744" y2="28.8458">
		<stop  offset="0" style="stop-color:#10B857;stop-opacity:0.99"/>
		<stop  offset="1" style="stop-color:#18B7EC"/>
	</linearGradient>
	<path class="st9" d="M29.26,24.71c-1.09,0.9-2.48,1.45-4,1.45c-1.52,0-2.92-0.55-4-1.45l-0.59,0.59c-0.31,0.31-0.49,0.73-0.5,1.18
		l-0.02,0.88c0.3,0.06,0.57,0.18,0.82,0.33V27.3h8.27v4.55h-7.41c-0.41,0.54-1,0.94-1.69,1.08v0.06h10.24v-6.45
		c0-0.45-0.18-0.89-0.5-1.21L29.26,24.71z"/>
	<linearGradient id="SVGID_11_" gradientUnits="userSpaceOnUse" x1="17.8633" y1="30.1402" x2="21.2754" y2="30.1402">
		<stop  offset="0" style="stop-color:#10B857;stop-opacity:0.99"/>
		<stop  offset="1" style="stop-color:#18B7EC"/>
	</linearGradient>
	<path class="st10" d="M21.28,30.14c0-0.94-0.77-1.71-1.71-1.71h-1.71v3.41h1.71C20.51,31.85,21.28,31.08,21.28,30.14z"/>
	<linearGradient id="SVGID_12_" gradientUnits="userSpaceOnUse" x1="22.1086" y1="29.5715" x2="28.0996" y2="29.5715">
		<stop  offset="0" style="stop-color:#10B857;stop-opacity:0.99"/>
		<stop  offset="1" style="stop-color:#18B7EC"/>
	</linearGradient>
	<path class="st11" d="M28.1,30.71v-2.27h-5.99v0.45c0.19,0.38,0.3,0.8,0.3,1.25c0,0.19-0.02,0.38-0.06,0.57H28.1z"/>
	<linearGradient id="SVGID_13_" gradientUnits="userSpaceOnUse" x1="8.7644" y1="5.028" x2="21.6331" y2="5.028">
		<stop  offset="0" style="stop-color:#10B857;stop-opacity:0.99"/>
		<stop  offset="1" style="stop-color:#18B7EC"/>
	</linearGradient>
	<path class="st12" d="M10.31,9.38c0.17,0.3,0.44,0.53,0.75,0.68c-0.01-0.13-0.02-0.26-0.02-0.39V7.19c0-1.14,0.68-2.16,1.72-2.61
		l1.99-0.85l-0.27-0.66l1.06-0.42l0.28,0.7c0.44,1.09,1.47,1.79,2.64,1.79h1.67c0.63,0,1.14-0.51,1.14-1.14s-0.51-1.14-1.14-1.14
		C19.51,2.84,19,3.35,19,3.98h-1.14c0-1.25,1.02-2.27,2.27-2.27c0.57,0,1.09,0.22,1.5,0.57l-0.77-0.99C20.23,0.47,19.26,0,18.22,0
		c-0.52,0-1.04,0.12-1.5,0.35l-0.56,0.28l-0.56-0.28C15.13,0.12,14.61,0,14.09,0c-1.04,0-2.01,0.47-2.65,1.29L9.43,3.89
		C9,4.44,8.76,5.13,8.76,5.83c0,0.55,0.14,1.09,0.42,1.57L10.31,9.38z"/>
	<linearGradient id="SVGID_14_" gradientUnits="userSpaceOnUse" x1="17.8013" y1="23.9566" x2="20.452" y2="23.9566">
		<stop  offset="0" style="stop-color:#10B857;stop-opacity:0.99"/>
		<stop  offset="1" style="stop-color:#18B7EC"/>
	</linearGradient>
	<path class="st13" d="M19.01,27.3l0.01-0.84c0.01-0.74,0.31-1.44,0.83-1.96l0.59-0.59c-0.61-0.73-1.05-1.61-1.28-2.56l-0.9-0.72
		c-0.11,0.24-0.27,0.44-0.47,0.6l1.1,6.08H19.01z"/>
	<linearGradient id="SVGID_15_" gradientUnits="userSpaceOnUse" x1="4.215" y1="25.2856" x2="16.726" y2="25.2856">
		<stop  offset="0" style="stop-color:#10B857;stop-opacity:0.99"/>
		<stop  offset="1" style="stop-color:#18B7EC"/>
	</linearGradient>
	<path class="st14" d="M6.49,27.3h1.14v-2.84h1.14v2.84h4.64l1.1-6.08c-0.2-0.16-0.36-0.37-0.47-0.6l-0.96,0.77l-1.63-3.8
		l-1.74,0.48c-1.53,0.42-2.88,1.27-3.91,2.48c-1.02,1.19-1.58,2.71-1.58,4.28v6.45c0,0.94,0.77,1.71,1.71,1.71h10.8v-4.55H6.49
		L6.49,27.3z"/>
</g>
</svg>
