<?xml version="1.0" encoding="utf-8"?>
<!-- Generator: Adobe Illustrator 25.1.0, SVG Export Plug-In . SVG Version: 6.00 Build 0)  -->
<svg version="1.1" id="Layer_1" xmlns="http://www.w3.org/2000/svg" xmlns:xlink="http://www.w3.org/1999/xlink" x="0px" y="0px"
	 viewBox="0 0 33 33" style="enable-background:new 0 0 33 33;" xml:space="preserve">
<style type="text/css">
	.st0{fill:url(#SVGID_1_);}
	.st1{fill:url(#SVGID_2_);}
</style>
<g>
	<linearGradient id="SVGID_1_" gradientUnits="userSpaceOnUse" x1="11.5667" y1="15.5482" x2="23.9422" y2="15.5482">
		<stop  offset="0" style="stop-color:#10B857;stop-opacity:0.99"/>
		<stop  offset="1" style="stop-color:#18B7EC"/>
	</linearGradient>
	<path class="st0" d="M21.92,10.04c-1.54-0.63-2.68,0.32-3.23,0.94c-0.24,0.27-0.57,0.42-0.93,0.42h0c-0.36,0-0.69-0.15-0.93-0.42
		c-0.42-0.48-1.2-1.15-2.24-1.15c-0.31,0-0.65,0.06-1,0.21c-0.81,0.33-1.44,0.98-1.77,1.83c-0.36,0.93-0.33,1.99,0.1,2.9
		c0.7,1.49,2.28,3.81,5.85,6.49c3.55-2.66,5.13-4.99,5.83-6.49c0.43-0.91,0.46-1.97,0.1-2.9C23.36,11.02,22.73,10.37,21.92,10.04z"
		/>
	<linearGradient id="SVGID_2_" gradientUnits="userSpaceOnUse" x1="0.9301" y1="16.4683" x2="32.1299" y2="16.4683">
		<stop  offset="0" style="stop-color:#10B857;stop-opacity:0.99"/>
		<stop  offset="1" style="stop-color:#18B7EC"/>
	</linearGradient>
	<path class="st1" d="M31.31,8.23C30.19,5.31,28.06,3,25.16,1.55c-2.65-1.32-5.83-1.82-8.94-1.42c-2.3,0.3-4.49,1.1-6.32,2.33
		C6.31,4.85,3.96,8.72,3.61,12.81c-0.05,0.61,0.04,1.23,0.12,1.82c0.09,0.62,0.18,1.21,0.07,1.64l0,0
		c-0.02,0.09-0.29,0.98-2.29,2.96c-0.5,0.5-0.7,1.23-0.5,1.91c0.19,0.68,0.75,1.2,1.44,1.36c0.29,0.07,0.55,0.12,0.77,0.17
		c0.08,0.02,0.15,0.03,0.21,0.05c0.01,1.57,0.03,3.43,0.06,3.77c0.07,0.81,0.42,1.48,1.03,1.96c0.84,0.65,2.1,0.87,3.66,0.62
		c1.2-0.19,1.92,0.11,2.12,0.9c0.02,0.16,0.07,0.64,0.11,1.16c0.07,1,0.91,1.79,1.91,1.79h12.42c1.06,0,1.92-0.86,1.92-1.92v-3.43
		c0-2.42,0.38-4.07,1.13-4.9c1.86-2.05,3.19-4.36,3.85-6.67C32.39,13.37,32.28,10.75,31.31,8.23z M25.34,15.59
		c-1.2,2.57-3.51,5.1-6.85,7.53c-0.22,0.16-0.48,0.24-0.73,0.24c-0.26,0-0.51-0.08-0.73-0.24c-2.31-1.68-5.37-4.35-6.86-7.52
		c-0.65-1.39-0.7-3-0.15-4.42c0.53-1.35,1.54-2.38,2.84-2.91c2.25-0.91,4,0.15,4.9,0.94c0.9-0.79,2.64-1.86,4.89-0.94
		c1.31,0.53,2.31,1.56,2.84,2.91C26.05,12.59,25.99,14.2,25.34,15.59z"/>
</g>
</svg>
