<?xml version="1.0" encoding="utf-8"?>
<!-- Generator: Adobe Illustrator 25.1.0, SVG Export Plug-In . SVG Version: 6.00 Build 0)  -->
<svg version="1.1" id="Layer_1" xmlns="http://www.w3.org/2000/svg" xmlns:xlink="http://www.w3.org/1999/xlink" x="0px" y="0px"
	 viewBox="0 0 33 33" style="enable-background:new 0 0 33 33;" xml:space="preserve">
<style type="text/css">
	.st0{fill:url(#SVGID_1_);}
	.st1{fill:url(#SVGID_2_);}
	.st2{fill:url(#SVGID_3_);}
	.st3{fill:url(#SVGID_4_);}
	.st4{fill:url(#SVGID_5_);}
	.st5{fill:url(#SVGID_6_);}
	.st6{fill:url(#SVGID_7_);}
</style>
<linearGradient id="SVGID_1_" gradientUnits="userSpaceOnUse" x1="7.0097" y1="9.4162" x2="25.0896" y2="9.4162">
	<stop  offset="0" style="stop-color:#10B857;stop-opacity:0.99"/>
	<stop  offset="1" style="stop-color:#18B7EC"/>
</linearGradient>
<polygon class="st0" points="12.79,14.64 25.09,7.54 19.31,4.2 7.01,11.3 "/>
<linearGradient id="SVGID_2_" gradientUnits="userSpaceOnUse" x1="0" y1="19.0445" x2="12.3219" y2="19.0445">
	<stop  offset="0" style="stop-color:#10B857;stop-opacity:0.99"/>
	<stop  offset="1" style="stop-color:#18B7EC"/>
</linearGradient>
<polygon class="st1" points="12.32,15.49 0,8.39 0,22.59 12.32,29.69 "/>
<linearGradient id="SVGID_3_" gradientUnits="userSpaceOnUse" x1="23.2275" y1="23.4363" x2="24.573" y2="23.4363">
	<stop  offset="0" style="stop-color:#10B857;stop-opacity:0.99"/>
	<stop  offset="1" style="stop-color:#18B7EC"/>
</linearGradient>
<rect x="23.23" y="22.76" class="st2" width="1.35" height="1.35"/>
<linearGradient id="SVGID_4_" gradientUnits="userSpaceOnUse" x1="13.3133" y1="19.0445" x2="25.5797" y2="19.0445">
	<stop  offset="0" style="stop-color:#10B857;stop-opacity:0.99"/>
	<stop  offset="1" style="stop-color:#18B7EC"/>
</linearGradient>
<path class="st3" d="M13.31,15.49v14.2l6.73-3.89V15.55c-0.01-1.17,0.94-2.13,2.12-2.14h1.76c0.21-0.75,0.88-1.27,1.66-1.27h-0.02
	V8.39L13.31,15.49z"/>
<linearGradient id="SVGID_5_" gradientUnits="userSpaceOnUse" x1="24.8562" y1="13.8763" x2="29.176" y2="13.8763">
	<stop  offset="0" style="stop-color:#10B857;stop-opacity:0.99"/>
	<stop  offset="1" style="stop-color:#18B7EC"/>
</linearGradient>
<path class="st4" d="M25.58,13.13h2.88c0.4,0,0.72,0.32,0.72,0.72v0.05c0,0.4-0.32,0.72-0.72,0.72h-2.88c-0.4,0-0.72-0.32-0.72-0.72
	v-0.05C24.86,13.45,25.18,13.13,25.58,13.13z"/>
<linearGradient id="SVGID_6_" gradientUnits="userSpaceOnUse" x1="0.4966" y1="5.5804" x2="18.3149" y2="5.5804">
	<stop  offset="0" style="stop-color:#10B857;stop-opacity:0.99"/>
	<stop  offset="1" style="stop-color:#18B7EC"/>
</linearGradient>
<polygon class="st5" points="18.31,3.62 12.79,0.44 0.5,7.54 6.02,10.72 "/>
<linearGradient id="SVGID_7_" gradientUnits="userSpaceOnUse" x1="21.0321" y1="22.6929" x2="33" y2="22.6929">
	<stop  offset="0" style="stop-color:#10B857;stop-opacity:0.99"/>
	<stop  offset="1" style="stop-color:#18B7EC"/>
</linearGradient>
<path class="st6" d="M31.86,14.41h-1.78c-0.22,0.72-0.89,1.21-1.64,1.2h-2.86c-0.75,0.01-1.42-0.48-1.64-1.2h-1.78
	c-0.63,0.01-1.13,0.52-1.13,1.14c0,0,0,0,0,0v14.31c0,0.61,0.49,1.11,1.1,1.11c0.01,0,0.02,0,0.03,0h9.7
	c0.62,0.01,1.13-0.48,1.14-1.1c0-0.01,0-0.01,0-0.02V15.55C33,14.92,32.49,14.41,31.86,14.41z M22.24,17.74
	c0-0.27,0.22-0.5,0.49-0.5c0,0,0,0,0,0h2.34c0.28,0,0.5,0.22,0.5,0.5v0.33c0,0.27-0.22,0.5-0.5,0.49c-0.21,0.01-0.41-0.13-0.47-0.33
	h-1.37v1.35h0.02c0.27,0,0.5,0.22,0.5,0.5c0,0.27-0.22,0.5-0.5,0.5h-0.52c-0.27,0-0.49-0.22-0.49-0.49c0,0,0,0,0,0V17.74z
	 M22.24,22.27c0-0.27,0.22-0.5,0.5-0.5h2.34c0.27,0,0.5,0.22,0.5,0.5v2.34c0,0.27-0.22,0.5-0.5,0.5h-2.34c-0.27,0-0.5-0.22-0.5-0.5
	V22.27z M23.25,29.63h-0.52c-0.26,0.01-0.48-0.2-0.49-0.46c0,0,0-0.01,0-0.01v-2.34c0-0.28,0.22-0.51,0.49-0.51h2.34
	c0.28,0.01,0.5,0.24,0.5,0.51v0.48c-0.01,0.28-0.23,0.49-0.51,0.49c-0.27-0.01-0.48-0.22-0.49-0.49h-1.34v1.35h0.02
	c0.27,0,0.5,0.22,0.5,0.5C23.74,29.41,23.52,29.63,23.25,29.63L23.25,29.63z M26.91,27.7l-1.8,1.8c-0.19,0.19-0.51,0.19-0.7,0
	c0,0,0,0,0,0l-0.79-0.79c-0.19-0.19-0.19-0.51,0-0.7c0.19-0.19,0.51-0.19,0.7,0l0.44,0.44L26.2,27c0.19-0.19,0.51-0.19,0.7,0
	C27.1,27.2,27.1,27.51,26.91,27.7L26.91,27.7z M26.91,18.55l-1.8,1.8c-0.19,0.19-0.51,0.19-0.7,0c0,0,0,0,0,0l-0.79-0.79
	c-0.19-0.19-0.19-0.51,0-0.7c0.19-0.19,0.51-0.19,0.7,0l0.44,0.44l1.45-1.45c0.19-0.19,0.51-0.19,0.7,0
	C27.1,18.04,27.1,18.36,26.91,18.55L26.91,18.55z M31.29,28.5h-3.11c-0.27,0-0.5-0.22-0.5-0.5c0-0.27,0.22-0.5,0.5-0.5h3.11
	c0.27,0,0.5,0.22,0.5,0.5C31.79,28.28,31.56,28.5,31.29,28.5z M31.29,23.97h-3.11c-0.27,0-0.5-0.22-0.5-0.5s0.22-0.5,0.5-0.5h3.11
	c0.27,0,0.5,0.22,0.5,0.5S31.56,23.97,31.29,23.97z M31.29,19.44h-3.11c-0.27,0-0.5-0.22-0.5-0.5c0-0.27,0.22-0.5,0.5-0.5h3.11
	c0.27,0,0.5,0.22,0.5,0.5C31.79,19.21,31.56,19.44,31.29,19.44z"/>
</svg>
