<?xml version="1.0" encoding="utf-8"?>
<!-- Generator: Adobe Illustrator 25.1.0, SVG Export Plug-In . SVG Version: 6.00 Build 0)  -->
<svg version="1.1" id="Layer_1" xmlns="http://www.w3.org/2000/svg" xmlns:xlink="http://www.w3.org/1999/xlink" x="0px" y="0px"
	 viewBox="0 0 47 47" style="enable-background:new 0 0 47 47;" xml:space="preserve">
<style type="text/css">
	.st0{fill:url(#SVGID_1_);}
	.st1{fill:url(#SVGID_2_);}
	.st2{fill:url(#SVGID_3_);}
	.st3{fill:url(#SVGID_4_);}
	.st4{fill:url(#SVGID_5_);}
	.st5{fill:url(#SVGID_6_);}
	.st6{fill:url(#SVGID_7_);}
	.st7{fill:url(#SVGID_8_);}
	.st8{fill:url(#SVGID_9_);}
	.st9{fill:url(#SVGID_10_);}
	.st10{fill:url(#SVGID_11_);}
</style>
<g>
	<linearGradient id="SVGID_1_" gradientUnits="userSpaceOnUse" x1="11.8227" y1="18.4954" x2="16.8273" y2="18.4954">
		<stop  offset="0" style="stop-color:#10B857;stop-opacity:0.99"/>
		<stop  offset="1" style="stop-color:#18B7EC"/>
	</linearGradient>
	<path class="st0" d="M16.83,18.5c0,1.38-1.12,2.5-2.5,2.5s-2.5-1.12-2.5-2.5s1.12-2.5,2.5-2.5S16.83,17.11,16.83,18.5z"/>
	<linearGradient id="SVGID_2_" gradientUnits="userSpaceOnUse" x1="11.8227" y1="1.8136" x2="35.0238" y2="1.8136">
		<stop  offset="0" style="stop-color:#10B857;stop-opacity:0.99"/>
		<stop  offset="1" style="stop-color:#18B7EC"/>
	</linearGradient>
	<path class="st1" d="M26.84,2.65c0-0.46,0.37-0.83,0.83-0.83h7.35c-0.35-1-1.29-1.66-2.35-1.67H14.33c-1.38,0-2.5,1.12-2.5,2.5
		v0.83h15.01V2.65z"/>
	<linearGradient id="SVGID_3_" gradientUnits="userSpaceOnUse" x1="10.1546" y1="25.9844" x2="18.4955" y2="25.9844">
		<stop  offset="0" style="stop-color:#10B857;stop-opacity:0.99"/>
		<stop  offset="1" style="stop-color:#18B7EC"/>
	</linearGradient>
	<path class="st2" d="M18.5,28.34v-1.5c0-2.3-1.87-4.17-4.17-4.17s-4.17,1.87-4.17,4.17v1.5c1.04,0.53,2.17,0.86,3.34,0.97v-1.63
		h1.67v1.63C16.32,29.2,17.45,28.87,18.5,28.34z"/>
	<linearGradient id="SVGID_4_" gradientUnits="userSpaceOnUse" x1="5.1924" y1="19.1326" x2="23.4577" y2="19.1326">
		<stop  offset="0" style="stop-color:#10B857;stop-opacity:0.99"/>
		<stop  offset="1" style="stop-color:#18B7EC"/>
	</linearGradient>
	<path class="st3" d="M5.19,19.33h1.63V21H5.19C5.4,23.31,6.48,25.45,8.21,27c0.09,0.08,0.19,0.15,0.28,0.23v-0.39
		c0-2.18,1.22-4.18,3.15-5.18c-1.34-1.13-1.83-2.97-1.23-4.62c0.6-1.65,2.17-2.74,3.92-2.74s3.32,1.09,3.92,2.74
		c0.6,1.65,0.11,3.49-1.23,4.62c1.93,1,3.15,3,3.15,5.18v0.4c0.09-0.08,0.19-0.15,0.28-0.23c1.73-1.55,2.81-3.7,3.01-6.01h-1.62
		v-1.67h1.63c-0.41-4.4-3.9-7.89-8.3-8.3v1.63h-1.67v-1.63C9.09,11.44,5.6,14.93,5.19,19.33z"/>
	<linearGradient id="SVGID_5_" gradientUnits="userSpaceOnUse" x1="28.5046" y1="7.6522" x2="45.1865" y2="7.6522">
		<stop  offset="0" style="stop-color:#10B857;stop-opacity:0.99"/>
		<stop  offset="1" style="stop-color:#18B7EC"/>
	</linearGradient>
	<path class="st4" d="M28.5,11.82h16.68V3.48H28.5V11.82z M35.18,5.15h8.34v1.67h-8.34V5.15z M30.17,5.15h3.34v1.67h-3.34V5.15z
		 M30.17,8.49h13.35v1.67H30.17V8.49z"/>
	<linearGradient id="SVGID_6_" gradientUnits="userSpaceOnUse" x1="11.8227" y1="44.3523" x2="35.1774" y2="44.3523">
		<stop  offset="0" style="stop-color:#10B857;stop-opacity:0.99"/>
		<stop  offset="1" style="stop-color:#18B7EC"/>
	</linearGradient>
	<path class="st5" d="M18.5,43.52c0,0.46-0.37,0.83-0.83,0.83h-5.84c0,1.38,1.12,2.5,2.5,2.5h18.35c1.38,0,2.5-1.12,2.5-2.5v-2.5
		H18.5V43.52z M22.67,43.52h1.67v1.67h-1.67V43.52z"/>
	<linearGradient id="SVGID_7_" gradientUnits="userSpaceOnUse" x1="0.1454" y1="40.1819" x2="16.8273" y2="40.1819">
		<stop  offset="0" style="stop-color:#10B857;stop-opacity:0.99"/>
		<stop  offset="1" style="stop-color:#18B7EC"/>
	</linearGradient>
	<path class="st6" d="M16.83,37.68H0.15v5h16.68V37.68z M5.98,41.02H1.81v-1.67h4.17V41.02z M15.16,41.02H7.65v-1.67h7.51V41.02z"/>
	<linearGradient id="SVGID_8_" gradientUnits="userSpaceOnUse" x1="32.2246" y1="24.1423" x2="46.8546" y2="24.1423">
		<stop  offset="0" style="stop-color:#10B857;stop-opacity:0.99"/>
		<stop  offset="1" style="stop-color:#18B7EC"/>
	</linearGradient>
	<path class="st7" d="M45.87,16.83c-0.24,0-0.47,0.09-0.65,0.25l-13,11.47l2.92,2.91l11.47-13c0.25-0.29,0.32-0.7,0.16-1.05
		C46.61,17.05,46.26,16.83,45.87,16.83z"/>
	<linearGradient id="SVGID_9_" gradientUnits="userSpaceOnUse" x1="26.3583" y1="33.0988" x2="34.3298" y2="33.0988">
		<stop  offset="0" style="stop-color:#10B857;stop-opacity:0.99"/>
		<stop  offset="1" style="stop-color:#18B7EC"/>
	</linearGradient>
	<path class="st8" d="M26.84,33.51v1.47c0,0.65-0.16,1.29-0.48,1.86h3.81c2.17,0,3.98-1.67,4.16-3.84l-3.66-3.66
		C28.51,29.53,26.84,31.34,26.84,33.51z"/>
	<linearGradient id="SVGID_10_" gradientUnits="userSpaceOnUse" x1="11.8227" y1="22.6659" x2="35.1774" y2="22.6659">
		<stop  offset="0" style="stop-color:#10B857;stop-opacity:0.99"/>
		<stop  offset="1" style="stop-color:#18B7EC"/>
	</linearGradient>
	<path class="st9" d="M30.17,38.51h-5.84c-0.39,0-0.73-0.26-0.82-0.64c-0.09-0.38,0.1-0.77,0.45-0.94c0.74-0.37,1.21-1.12,1.21-1.95
		v-1.47c0-3.09,2.42-5.65,5.51-5.82l4.5-3.97V13.49h-7.51c-0.46,0-0.83-0.37-0.83-0.83V5.15H11.82v4.47
		c0.55-0.13,1.11-0.22,1.67-0.26V6.82h1.67v2.54c5.32,0.42,9.55,4.64,9.97,9.97h2.54V21h-2.55c-0.39,5.33-4.63,9.57-9.96,9.97v2.54
		h-1.67v-2.54c-0.56-0.04-1.12-0.13-1.67-0.26v5.31h5.84c0.46,0,0.83,0.37,0.83,0.83v3.34h16.68v-4.52
		C34.13,37.43,32.23,38.51,30.17,38.51z"/>
	<linearGradient id="SVGID_11_" gradientUnits="userSpaceOnUse" x1="0.1454" y1="5.984" x2="6.8182" y2="5.984">
		<stop  offset="0" style="stop-color:#10B857;stop-opacity:0.99"/>
		<stop  offset="1" style="stop-color:#18B7EC"/>
	</linearGradient>
	<path class="st10" d="M6.82,3.48H0.15v5h6.67V3.48z M5.15,6.82H1.81V5.15h3.34V6.82z"/>
</g>
</svg>
