<?xml version="1.0" encoding="utf-8"?>
<!-- Generator: Adobe Illustrator 23.1.0, SVG Export Plug-In . SVG Version: 6.00 Build 0)  -->
<svg version="1.1" id="LINE" xmlns="http://www.w3.org/2000/svg" xmlns:xlink="http://www.w3.org/1999/xlink" x="0px" y="0px"
	 viewBox="0 0 512 512" style="enable-background:new 0 0 512 512;" xml:space="preserve">
<style type="text/css">
	.st0{fill:#EFEFEF;}
	.st1{fill:#A4AFC1;}
	.st2{fill:#F3F3F1;}
	.st3{fill:#1D9976;}
	.st4{fill:#1EB68E;}
	.st5{fill:#D5DBE1;}
	.st6{fill:#00B871;}
	.st7{fill:#333333;}
</style>
<g>
	<path class="st0" d="M496.4,289.5c-53.8-82.4-48.1-166.8-74-206.5S319.2-25.1,136.6,94.1S0.5,343,29,386.7
		C162.6,591.1,591.7,435.4,496.4,289.5z"/>
	<g>
		<path class="st1" d="M392.5,439.1l20.1-20.1l10.1,10.1l-20.1,20.1L392.5,439.1z"/>
		<path class="st1" d="M450.3,381.3l20.1-20.1l10.1,10.1l-20.1,20.1L450.3,381.3z"/>
		<path class="st1" d="M450.3,431.4l10.1-10.1l20.1,20.1l-10.1,10.1L450.3,431.4z"/>
		<path class="st1" d="M200.9,75.5c-11.8,0-21.3-9.6-21.3-21.3s9.6-21.3,21.3-21.3c11.8,0,21.3,9.6,21.3,21.3S212.7,75.5,200.9,75.5
			z M200.9,47.1c-3.9,0-7.1,3.2-7.1,7.1s3.2,7.1,7.1,7.1c3.9,0,7.1-3.2,7.1-7.1S204.8,47.1,200.9,47.1z"/>
	</g>
	<circle class="st2" cx="369.8" cy="298.7" r="17.8"/>
	<circle class="st2" cx="142.2" cy="298.7" r="17.8"/>
	<circle class="st3" cx="256" cy="291.6" r="32"/>
	<path class="st3" d="M188.4,416v-21.3c0-15.7,12.7-28.4,28.4-28.4h78.2c15.7,0,28.4,12.7,28.4,28.4V416H188.4z"/>
	<path class="st3" d="M256.2,196.1l-37.3,20.8l7-43.7l-30.3-30.8l41.7-6.5L255.8,96l18.8,39.7l41.8,6.2l-30.1,31l7.3,43.7
		L256.2,196.1z"/>
	<path class="st2" d="M356.2,140.7l14.2-30.4l14.4,30.4l32,4.8l-23,23.7l5.6,33.4l-28.6-15.7l-28.5,15.9l5.3-33.4L356.2,140.7z"/>
	<path class="st2" d="M155.8,140.7l-14.2-30.4l-14.4,30.4l-32,4.8l23,23.7l-5.6,33.4l28.6-15.7l28.5,15.9l-5.3-33.4L155.8,140.7z"/>
	<path class="st4" d="M245.3,366.2h-28.4c-15.7,0-28.4,12.7-28.4,28.4V416h28.4v-21.3C216.9,379,229.6,366.2,245.3,366.2z"/>
	<path class="st4" d="M252.4,291.6c0-12.5,7.3-23.3,17.8-28.5c-4.3-2.1-9.1-3.5-14.2-3.5c-17.7,0-32,14.3-32,32s14.3,32,32,32
		c5.1,0,9.9-1.3,14.2-3.5C259.7,314.8,252.4,304.1,252.4,291.6z"/>
	<path class="st5" d="M141.4,186.8l2.2,1.2l3.2-19l-23-23.7l32-4.8l0-0.1l-14.1-30.3l-14.4,30.4l-32,4.8l23,23.7l-5.6,33.4
		L141.4,186.8z"/>
	<path class="st5" d="M155.5,194.6l14.4,8l-2.3-14.6L155.5,194.6z"/>
	<path class="st5" d="M344.4,188l-2.3,14.6l14.4-8L344.4,188z"/>
	<path class="st5" d="M416.7,145.3l-32-4.8l-14.4-30.4l-14.1,30.3l0,0.1l32,4.8l-23,23.7l3.2,19l2.2-1.2l28.6,15.7l-5.6-33.4
		L416.7,145.3z"/>
	<path class="st4" d="M250.1,199.5l4.2-26.3L224,142.3l41.7-6.5l4.5-9.6L255.8,96l-18.5,39.8l-41.7,6.5l30.3,30.8l-7,43.7
		L250.1,199.5z"/>
	<path class="st6" d="M284.6,196.1l-14.1,7.9l23.1,12.6l-2.9-17.2L284.6,196.1z"/>
	<path class="st7" d="M369.8,327.1c-15.7,0-28.4-12.8-28.4-28.4c0-15.7,12.8-28.4,28.4-28.4s28.4,12.8,28.4,28.4
		C398.2,314.4,385.5,327.1,369.8,327.1z M369.8,291.6c-3.9,0-7.1,3.2-7.1,7.1s3.2,7.1,7.1,7.1s7.1-3.2,7.1-7.1
		S373.7,291.6,369.8,291.6z"/>
	<path class="st7" d="M426.7,387.6h-21.3v-7.1c0-9.8-8-17.8-17.8-17.8H352v-21.3h35.6c21.6,0,39.1,17.5,39.1,39.1V387.6z"/>
	<path class="st7" d="M142.2,327.1c-15.7,0-28.4-12.8-28.4-28.4c0-15.7,12.8-28.4,28.4-28.4s28.4,12.8,28.4,28.4
		C170.7,314.4,157.9,327.1,142.2,327.1z M142.2,291.6c-3.9,0-7.1,3.2-7.1,7.1s3.2,7.1,7.1,7.1s7.1-3.2,7.1-7.1
		S146.1,291.6,142.2,291.6z"/>
	<path class="st7" d="M106.7,387.6H85.3v-7.1c0-21.6,17.5-39.1,39.1-39.1H160v21.3h-35.6c-9.8,0-17.8,8-17.8,17.8V387.6z"/>
	<path class="st7" d="M256,334.2c-23.5,0-42.7-19.1-42.7-42.7c0-23.5,19.1-42.7,42.7-42.7c23.5,0,42.7,19.1,42.7,42.7
		C298.7,315.1,279.5,334.2,256,334.2z M256,270.2c-11.8,0-21.3,9.6-21.3,21.3s9.6,21.3,21.3,21.3s21.3-9.6,21.3-21.3
		S267.8,270.2,256,270.2z"/>
	<path class="st7" d="M334.2,416h-21.3v-21.3c0-9.8-8-17.8-17.8-17.8h-78.2c-9.8,0-17.8,8-17.8,17.8V416h-21.3v-21.3
		c0-21.6,17.5-39.1,39.1-39.1h78.2c21.6,0,39.1,17.5,39.1,39.1V416z"/>
	<path class="st7" d="M218.9,227.6c-2.1,0-4.3-0.7-6.1-1.9c-3.3-2.3-5.1-6.4-4.4-10.4l6.1-38.4l-26.6-27c-2.8-2.9-3.8-7-2.5-10.8
		c1.3-3.8,4.5-6.6,8.5-7.2l36.1-5.6l16.1-34.7c1.7-3.8,5.5-6.2,9.6-6.2h0c4.1,0,7.9,2.4,9.6,6.1l16.4,34.6l36.2,5.4
		c4,0.6,7.3,3.3,8.5,7.1c1.3,3.8,0.3,8-2.4,10.9l-26.4,27.2l6.4,38.4c0.7,4-1,8.1-4.4,10.4c-3.3,2.3-7.7,2.6-11.3,0.7l-32.3-17.7
		l-32.1,17.9C222.5,227.1,220.7,227.6,218.9,227.6L218.9,227.6z M217.7,149.7l15.8,16c2.4,2.4,3.5,5.8,2.9,9.2l-3.5,22l18.1-10.1
		c3.2-1.8,7.1-1.8,10.3,0l18.2,10l-3.7-22c-0.6-3.3,0.5-6.8,2.9-9.2l15.7-16.1l-21.2-3.2c-3.5-0.5-6.5-2.8-8.1-6l-9.1-19.2l-9,19.2
		c-1.5,3.2-4.5,5.5-8,6L217.7,149.7z"/>
	<path class="st7" d="M342.1,213.3c-2.1,0-4.3-0.7-6.1-1.9c-3.3-2.3-5.1-6.4-4.4-10.4l5.3-33.4l21.1,3.4l-1.9,11.7l9.3-5.2
		c3.2-1.8,7.1-1.8,10.3,0l9.4,5.1l-2-11.7c-0.6-3.3,0.5-6.8,2.9-9.2l8.6-8.8l-11.4-1.7c-3.5-0.5-6.5-2.8-8.1-6l-4.7-9.8l-4.6,9.9
		l-19.3-9l14.2-30.4c1.8-3.7,5.5-6.1,9.7-6.1h0c4.1,0,7.9,2.4,9.6,6.1l11.9,25.2l26.3,3.9c4,0.6,7.3,3.3,8.5,7.1
		c1.3,3.8,0.3,8-2.4,10.9l-19.3,19.9l4.7,28.1c0.7,4-1,8.1-4.4,10.4c-3.3,2.3-7.7,2.6-11.3,0.7L370.6,199l-23.4,13
		C345.7,212.9,343.9,213.3,342.1,213.3L342.1,213.3z"/>
	<path class="st7" d="M169.9,213.3c-1.8,0-3.6-0.4-5.2-1.4l-23.4-13l-23.5,12.9c-3.6,1.9-8,1.7-11.3-0.7c-3.3-2.4-5-6.4-4.4-10.4
		l4.7-28.1l-19.3-19.9c-2.8-2.9-3.7-7.1-2.4-10.9c1.3-3.8,4.6-6.5,8.5-7.1l26.3-3.9l11.9-25.2c1.8-3.7,5.5-6.1,9.6-6.1h0
		c4.1,0,7.9,2.4,9.6,6.2l14.2,30.4l-19.3,9l-4.6-9.9l-4.7,9.8c-1.5,3.2-4.6,5.5-8.1,6l-11.4,1.7l8.6,8.8c2.4,2.4,3.4,5.8,2.9,9.2
		l-2,11.7l9.4-5.1c3.2-1.8,7.1-1.7,10.3,0l9.3,5.2l-1.9-11.7l21.1-3.4l5.3,33.4c0.6,4-1.1,8.1-4.4,10.4
		C174.2,212.7,172.1,213.3,169.9,213.3L169.9,213.3z"/>
</g>
</svg>
