<?xml version="1.0" encoding="utf-8"?>
<!-- Generator: Adobe Illustrator 23.1.0, SVG Export Plug-In . SVG Version: 6.00 Build 0)  -->
<svg version="1.1" id="LINE" xmlns="http://www.w3.org/2000/svg" xmlns:xlink="http://www.w3.org/1999/xlink" x="0px" y="0px"
	 viewBox="0 0 512 512" style="enable-background:new 0 0 512 512;" xml:space="preserve">
<style type="text/css">
	.st0{fill:#EFEFEF;}
	.st1{fill:#A4AFC1;}
	.st2{fill:#1D9976;}
	.st3{fill:#1EB68E;}
	.st4{fill:#333333;}
</style>
<g>
	<path class="st0" d="M119.1,452.7c98.4,0,165.9,51,213.3,51s147-27.2,147-245.3S345.5,8.3,293.4,8.3
		C49.2,8.3-55.1,452.7,119.1,452.7L119.1,452.7z"/>
	<g>
		<path class="st1" d="M230.5,57.5l20.1-20.1l10.1,10.1l-20.1,20.1L230.5,57.5z"/>
		<path class="st1" d="M172.7,115.3l20.1-20.1l10.1,10.1l-20.1,20.1L172.7,115.3z"/>
		<path class="st1" d="M172.7,45l10.1-10.1L202.9,55l-10.1,10.1L172.7,45z"/>
		<path class="st1" d="M46.8,272.7c-11.8,0-21.3-9.6-21.3-21.3c0-11.8,9.6-21.3,21.3-21.3s21.3,9.6,21.3,21.3
			C68.1,263.1,58.6,272.7,46.8,272.7z M46.8,244.2c-3.9,0-7.1,3.2-7.1,7.1c0,3.9,3.2,7.1,7.1,7.1s7.1-3.2,7.1-7.1
			C53.9,247.4,50.7,244.2,46.8,244.2z"/>
	</g>
	<circle class="st2" cx="163.6" cy="291.6" r="32"/>
	<path class="st2" d="M96,416v-21.3c0-15.7,12.7-28.4,28.4-28.4h78.2c15.7,0,28.4,12.7,28.4,28.4V416H96z"/>
	<path class="st2" d="M238.2,96H416v120.9H238.2l46.2-60.4L238.2,96z"/>
	<path class="st3" d="M152.9,366.2h-28.4c-15.7,0-28.4,12.7-28.4,28.4V416h28.4v-21.3C124.4,379,137.2,366.2,152.9,366.2z"/>
	<path class="st3" d="M160,291.6c0-12.5,7.3-23.3,17.8-28.5c-4.3-2.1-9.1-3.5-14.2-3.5c-17.7,0-32,14.3-32,32s14.3,32,32,32
		c5.1,0,9.9-1.3,14.2-3.5C167.3,314.8,160,304.1,160,291.6z"/>
	<path class="st3" d="M266.7,96h-28.4l46.2,60.4l-46.2,60.4h28.4l46.2-60.4L266.7,96z"/>
	<path class="st4" d="M163.6,334.2c-23.5,0-42.7-19.1-42.7-42.7c0-23.5,19.1-42.7,42.7-42.7s42.7,19.1,42.7,42.7
		C206.2,315.1,187.1,334.2,163.6,334.2z M163.6,270.2c-11.8,0-21.3,9.6-21.3,21.3c0,11.8,9.6,21.3,21.3,21.3s21.3-9.6,21.3-21.3
		C184.9,279.8,175.3,270.2,163.6,270.2z"/>
	<path class="st4" d="M241.8,416h-21.3v-21.3c0-9.8-8-17.8-17.8-17.8h-78.2c-9.8,0-17.8,8-17.8,17.8V416H85.3v-21.3
		c0-21.6,17.5-39.1,39.1-39.1h78.2c21.6,0,39.1,17.5,39.1,39.1V416z"/>
	<circle class="st2" cx="318.2" cy="291.6" r="32"/>
	<path class="st2" d="M250.7,416v-21.3c0-15.7,12.7-28.4,28.4-28.4h78.2c15.7,0,28.4,12.7,28.4,28.4V416H250.7z"/>
	<path class="st3" d="M307.6,366.2h-28.4c-15.7,0-28.4,12.7-28.4,28.4V416h28.4v-21.3C279.1,379,291.8,366.2,307.6,366.2z"/>
	<path class="st3" d="M314.7,291.6c0-12.5,7.3-23.3,17.8-28.5c-4.3-2.1-9.1-3.5-14.2-3.5c-17.7,0-32,14.3-32,32s14.3,32,32,32
		c5.1,0,9.9-1.3,14.2-3.5C321.9,314.8,314.7,304.1,314.7,291.6z"/>
	<path class="st4" d="M318.2,334.2c-23.5,0-42.7-19.1-42.7-42.7c0-23.5,19.1-42.7,42.7-42.7s42.7,19.1,42.7,42.7
		C360.9,315.1,341.7,334.2,318.2,334.2z M318.2,270.2c-11.8,0-21.3,9.6-21.3,21.3c0,11.8,9.6,21.3,21.3,21.3s21.3-9.6,21.3-21.3
		C339.6,279.8,330,270.2,318.2,270.2z"/>
	<path class="st4" d="M396.4,416h-21.3v-21.3c0-9.8-8-17.8-17.8-17.8h-78.2c-9.8,0-17.8,8-17.8,17.8V416H240v-21.3
		c0-21.6,17.5-39.1,39.1-39.1h78.2c21.6,0,39.1,17.5,39.1,39.1V416z"/>
	<circle class="st2" cx="240.9" cy="280" r="16"/>
	<path class="st2" d="M207.1,342.2v-10.7c0-7.9,6.4-14.2,14.2-14.2h39.1c7.9,0,14.2,6.4,14.2,14.2v10.7H207.1z"/>
	<path class="st3" d="M235.6,317.3h-14.2c-7.9,0-14.2,6.4-14.2,14.2v10.7h14.2v-10.7C221.3,323.7,227.7,317.3,235.6,317.3z"/>
	<path class="st3" d="M239.1,280c0-6.3,3.6-11.6,8.9-14.3c-2.1-1.1-4.5-1.7-7.1-1.7c-8.8,0-16,7.2-16,16s7.2,16,16,16
		c2.6,0,5-0.7,7.1-1.7C242.8,291.6,239.1,286.3,239.1,280z"/>
	<path class="st4" d="M240.9,301.3c-11.8,0-21.3-9.6-21.3-21.3s9.6-21.3,21.3-21.3s21.3,9.6,21.3,21.3S252.7,301.3,240.9,301.3z
		 M240.9,269.3c-5.9,0-10.7,4.8-10.7,10.7s4.8,10.7,10.7,10.7c5.9,0,10.7-4.8,10.7-10.7S246.8,269.3,240.9,269.3z"/>
	<path class="st4" d="M280,342.2h-10.7v-10.7c0-4.9-4-8.9-8.9-8.9h-39.1c-4.9,0-8.9,4-8.9,8.9v10.7h-10.7v-10.7
		c0-10.8,8.8-19.6,19.6-19.6h39.1c10.8,0,19.6,8.8,19.6,19.6V342.2z"/>
	<path class="st4" d="M405.3,96h21.3v320h-21.3V96z"/>
	<path class="st4" d="M416,227.6H238.2c-4.1,0-7.8-2.3-9.6-5.9c-1.8-3.6-1.4-8,1.1-11.2l41.3-54l-41.3-54c-2.5-3.2-2.9-7.6-1.1-11.2
		c1.8-3.6,5.5-5.9,9.6-5.9h101.4v21.3h-79.8l33.1,43.3c2.9,3.8,2.9,9.1,0,13l-33.1,43.3h145.5v-99.6h-32.8V85.3H416
		c5.9,0,10.7,4.8,10.7,10.7v120.9C426.7,222.8,421.9,227.6,416,227.6L416,227.6z"/>
</g>
</svg>
