<?xml version="1.0" encoding="utf-8"?>
<!-- Generator: Adobe Illustrator 23.1.0, SVG Export Plug-In . SVG Version: 6.00 Build 0)  -->
<svg version="1.1" id="LINE" xmlns="http://www.w3.org/2000/svg" xmlns:xlink="http://www.w3.org/1999/xlink" x="0px" y="0px"
	 viewBox="0 0 512 512" style="enable-background:new 0 0 512 512;" xml:space="preserve">
<style type="text/css">
	.st0{fill:#EFEFEF;}
	.st1{fill:#A4AFC1;}
	.st2{fill:#F3F3F1;}
	.st3{fill:#1D9976;}
	.st4{fill:#D5DBE1;}
	.st5{fill:#1EB68E;}
	.st6{fill:#333333;}
</style>
<g>
	<path class="st0" d="M115.4,59.6c-25.7,95-92.5,146.9-104.9,192.6s-12,149,198.5,205.9s276.4-64,290-114.4
		C562.7,108.1,160.9-108.6,115.4,59.6L115.4,59.6z"/>
	<g>
		<path class="st1" d="M352.4,459.2l20.1-20.1l10.1,10.1l-20.1,20.1L352.4,459.2z"/>
		<path class="st1" d="M410.2,401.4l20.1-20.1l10.1,10.1l-20.1,20.1L410.2,401.4z"/>
		<path class="st1" d="M410.2,451.7l10.1-10.1l20.1,20.1l-10.1,10.1L410.2,451.7z"/>
		<path class="st1" d="M61.1,208.9c-11.8,0-21.3-9.6-21.3-21.3c0-11.8,9.6-21.3,21.3-21.3s21.3,9.6,21.3,21.3
			C82.4,199.3,72.9,208.9,61.1,208.9z M61.1,180.5c-3.9,0-7.1,3.2-7.1,7.1s3.2,7.1,7.1,7.1s7.1-3.2,7.1-7.1S65,180.5,61.1,180.5z"/>
	</g>
	<circle class="st2" cx="246.4" cy="162.7" r="55.3"/>
	<path class="st3" d="M129.5,365.6v-36.9c0-27.2,22-49.2,49.2-49.2H314c27.2,0,49.2,22,49.2,49.2v36.9H129.5z"/>
	<path class="st4" d="M240.2,162.7c0-21.7,12.6-40.3,30.7-49.3c-7.4-3.7-15.7-6-24.6-6c-30.6,0-55.3,24.8-55.3,55.3
		s24.8,55.3,55.3,55.3c8.9,0,17.2-2.3,24.6-6C252.8,202.9,240.2,184.3,240.2,162.7z"/>
	<path class="st5" d="M227.9,279.5h-49.2c-27.2,0-49.2,22-49.2,49.2v36.9h49.2v-36.9C178.7,301.5,200.8,279.5,227.9,279.5z"/>
	<path class="st6" d="M246.4,236.5c-40.7,0-73.8-33.1-73.8-73.8s33.1-73.8,73.8-73.8s73.8,33.1,73.8,73.8S287.1,236.5,246.4,236.5z
		 M246.4,125.8c-20.3,0-36.9,16.6-36.9,36.9s16.6,36.9,36.9,36.9c20.3,0,36.9-16.6,36.9-36.9S266.7,125.8,246.4,125.8z"/>
	<path class="st6" d="M381.7,365.6h-36.9v-36.9c0-16.9-13.8-30.7-30.7-30.7H178.7c-16.9,0-30.7,13.8-30.7,30.7v36.9h-36.9v-36.9
		c0-37.3,30.3-67.6,67.6-67.6H314c37.3,0,67.6,30.3,67.6,67.6V365.6z"/>
</g>
</svg>
