<?xml version="1.0" encoding="utf-8"?>
<!-- Generator: Adobe Illustrator 23.1.0, SVG Export Plug-In . SVG Version: 6.00 Build 0)  -->
<svg version="1.1" id="Layer_1" xmlns="http://www.w3.org/2000/svg" xmlns:xlink="http://www.w3.org/1999/xlink" x="0px" y="0px"
	 viewBox="0 0 194.3 58.8" style="enable-background:new 0 0 194.3 58.8;" xml:space="preserve">
<style type="text/css">
	.st0{fill:#314E6C;}
	.st1{fill:#27B2D5;}
	.st2{fill:#324E6A;}
</style>
<g>
	<path class="st0" d="M177.3,20.4l-4.6,14.1h9.3L177.3,20.4z M175.7,13.7h5.4L193.2,47H186l-2.2-6.9h-12.9l-2.1,6.9h-7.2l11-31
		C173,14.5,174.1,13.7,175.7,13.7 M128.6,47V17.2c0-1,0.3-1.8,1-2.5c0.7-0.7,1.5-1,2.5-1h3.4v27.1h16.2V47H128.6z M102.5,20.4
		l-4.6,14.1h9.3L102.5,20.4z M100.9,13.7h5.4L118.4,47h-7.2l-2.2-6.9H96L93.9,47h-7.2l11-31C98.2,14.5,99.3,13.7,100.9,13.7
		 M60.1,47V19.6h-9.9v-2.4c0-1,0.3-1.8,1-2.5c0.7-0.7,1.5-1,2.5-1h23v5.9H67V47H60.1z"/>
	<path class="st1" d="M19.8,0L19.8,0c8.1,0,14.8,6.6,14.8,14.8v7.5c-1.5-1.3-3.2-2.5-5-3.4v-4.1c0-5.3-4.4-9.7-9.7-9.7
		s-9.7,4.4-9.7,9.7v4.1c-1.8,0.9-3.5,2-5,3.4v-7.5C5,6.6,11.7,0,19.8,0"/>
	<path class="st1" d="M39.6,40.2C39,50.6,30.3,58.8,19.8,58.8C9.3,58.8,0.6,50.6,0,40.2h5.1c0.6,7.6,7,13.5,14.7,13.5
		c7.7,0,14.1-5.9,14.7-13.5H39.6z"/>
	<path class="st2" d="M19.8,19.2c10.5,0,19.2,8.2,19.8,18.6h-5.1c-0.6-6.7-5.6-12.2-12.2-13.3V51c-0.8,0.2-1.7,0.3-2.5,0.3
		c-0.9,0-1.7-0.1-2.5-0.3V24.5C10.7,25.6,5.7,31,5.1,37.8H0C0.6,27.4,9.3,19.2,19.8,19.2"/>
</g>
</svg>
