<?xml version="1.0" encoding="utf-8"?>
<!-- Generator: Adobe Illustrator 23.1.0, SVG Export Plug-In . SVG Version: 6.00 Build 0)  -->
<svg version="1.1" id="Layer_1" xmlns="http://www.w3.org/2000/svg" xmlns:xlink="http://www.w3.org/1999/xlink" x="0px" y="0px"
	 viewBox="0 0 1200 399.1" style="enable-background:new 0 0 1200 399.1;" xml:space="preserve">
<style type="text/css">
	.st0{fill:#FFFFFF;}
</style>
<g id="XMLID_1_">
	<path id="XMLID_116_" class="st0" d="M300.3,20.1L14.2,96.8l70.4,40.6l12.4,63l39.3-33.2l59.3,34.2L300.3,20.1z M218.2,58.1
		L91.6,123.7l-37.5-21.8L218.2,58.1z M107.1,171.7l-6.9-35.1l126.4-65.6l-96,80.9l0,0L107.1,171.7z M148.8,156.7l106.9-90.1
		L190,180.4L148.8,156.7z"/>
	<g id="XMLID_2_">
		<g id="XMLID_77_">
			<path id="XMLID_114_" class="st0" d="M350.2,269.5v13.4c0,3.4-1.9,5.1-5.1,5.1h-15c-24.7,0-41.5-16.1-41.5-42.1V138.1
				c0-3.4,1.9-5.1,5.1-5.1h13.1c3.4,0,5.1,1.9,5.1,5.1v32.3h33.9c3.1,0,4.7,1.9,4.7,4.7v11.2c0,3.1-1.6,4.7-4.7,4.7H312v55.1
				c0,10.1,8,18.1,18.4,18.1H345C348.3,264.4,350.2,266.4,350.2,269.5z"/>
			<path id="XMLID_105_" class="st0" d="M482.2,175.5v107.4c0,3.1-2,5.1-5.1,5.1H467c-2.8,0-4.7-1.9-4.7-4.7v-9.9
				c-10.5,10.1-24.7,16.5-40.5,16.5c-33.6,0-60.8-27.3-60.8-60.9c0-33.2,27-60.5,60.8-60.5c15.5,0,30,6.1,40.2,16.2v-9.6
				c0-2.8,2.2-4.7,5-4.7h10.1C480,170.4,482.2,172.5,482.2,175.5z M459.1,229c0-20.3-16.5-37-37.3-37c-20.5,0-37,16.7-37,37
				c0,20.7,16.5,37.3,37,37.3C442.6,266.3,459.1,249.8,459.1,229z"/>
			<path id="XMLID_100_" class="st0" d="M552.7,269.5v13.4c0,3.4-2.2,5.1-5.1,5.1h-2.2c-24.3,0-37.8-11.5-37.8-40V128.5
				c0-3.4,1.9-5.1,5.1-5.1h13.1c3.4,0,5.1,1.9,5.1,5.1V248c0,11.1,6.4,16.2,14.6,16.2h3.1C551.3,264.4,552.7,266.4,552.7,269.5z"/>
			<path id="XMLID_93_" class="st0" d="M676.2,236.7h-88.8c4.5,19,20.3,30.4,37.3,30.4c12.7,0,23.5-5.8,31.6-12.3
				c2.6-2,5.1-1.9,7,0.7l7.6,9.2c2,2.6,2,5.1-0.4,7.3c-14.2,12.7-31.1,17.8-45.9,17.8c-35.8,0-61.4-29.2-61.4-62.4
				c0-33.6,26.3-59,59.6-59c32.7,0,57.4,24.4,58.9,63.1C681.4,234.8,679.6,236.7,676.2,236.7z M656.6,217.9
				c-2.8-16.1-16.7-28.9-34.3-28.9c-16.7,0-31.7,11.2-34.8,28.9H656.6z"/>
			<path id="XMLID_88_" class="st0" d="M799.5,218.5v64.4c0,3.4-1.9,5.1-5.1,5.1h-13.1c-3.4,0-5.1-1.9-5.1-5.1v-64.4
				c0-14.6-12-26.3-26.6-26.3s-26.3,11.8-26.3,26.3v64.4c0,3.4-2.2,5.1-5.1,5.1H705c-3.4,0-5.1-1.9-5.1-5.1V175.5
				c0-3.4,1.9-5.1,5.1-5.1h9.4c3.1,0,4.7,1.9,4.7,4.7v5.1c8.8-7.3,20-11.8,31.7-11.8C777.7,168.5,799.5,190.9,799.5,218.5z"/>
			<path id="XMLID_86_" class="st0" d="M884.2,269.5v13.4c0,3.4-1.9,5.1-5.1,5.1h-15c-24.7,0-41.5-16.1-41.5-42.1V138.1
				c0-3.4,1.9-5.1,5.1-5.1h13.1c3.4,0,5.1,1.9,5.1,5.1v32.3h33.9c3.1,0,4.7,1.9,4.7,4.7v11.2c0,3.1-1.6,4.7-4.7,4.7H846v55.1
				c0,10.1,8,18.1,18.4,18.1H879C882.3,264.4,884.2,266.4,884.2,269.5z"/>
			<path id="XMLID_83_" class="st0" d="M934.1,145.9c0,8.5-5.8,14.3-14.6,14.3c-7.6,0-14.3-5.8-14.3-14.3c0-7.6,6.9-14.3,14.3-14.3
				C928.2,131.6,934.1,138.4,934.1,145.9z M926.2,288H913c-3.1,0-5.1-1.9-5.1-5.1V175.5c0-3.4,2-5.1,5.1-5.1h13.1
				c3.4,0,5.1,1.9,5.1,5.1v107.4C931.3,286.3,929.4,288,926.2,288z"/>
			<path id="XMLID_81_" class="st0" d="M1012.4,289.9c-33.2,0-60.2-27-60.2-60.8c0-33.6,27-60.8,60.5-60.8
				c15.3,0,28.9,5.7,39.7,15.3c2.6,2.2,2.6,4.7,0.7,7.3l-8,9.4c-2.2,2.8-4.7,2.8-7.3,0.7c-8-6.3-16.9-9.2-25.1-9.2
				c-20.3,0-37,16.7-37,37c0,20.3,16.7,37.3,37,37.3c8.2,0,17.2-2.8,25.4-9.4c2.6-2.3,5-2.2,7,0.4l8,9.6c1.9,2.6,1.9,5.1-0.7,7.3
				C1041.4,283.6,1028.1,289.9,1012.4,289.9z"/>
			<path id="XMLID_78_" class="st0" d="M1185.8,175.5v107.4c0,3.1-2.2,5.1-5.1,5.1h-10.1c-2.8,0-4.7-1.9-4.7-4.7v-9.9
				c-10.7,10.1-24.7,16.5-40.5,16.5c-33.6,0-60.8-27.3-60.8-60.9c0-33.2,27-60.5,60.8-60.5c15.5,0,30,6.1,40.2,16.2v-9.6
				c0-2.8,2.2-4.7,5-4.7h10.1C1183.7,170.4,1185.8,172.5,1185.8,175.5z M1162.7,229c0-20.3-16.5-37-37.3-37c-20.5,0-37,16.7-37,37
				c0,20.7,16.5,37.3,37,37.3C1146.3,266.3,1162.7,249.8,1162.7,229z"/>
		</g>
		<g id="XMLID_3_">
			<path id="XMLID_74_" class="st0" d="M324.2,356.7c0,13.9-8.2,21.6-21.8,21.6h-13.9v-43.2h13.9
				C316.1,335.1,324.2,342.8,324.2,356.7z M318.7,356.7c0-10.5-5.8-16.7-15.8-16.7h-9.2v33.3h9.2
				C312.8,373.3,318.7,367.2,318.7,356.7z"/>
			<path id="XMLID_71_" class="st0" d="M357.1,360.3h-10.4v18h-5.3v-43.2h16.4c8.8,0,14.6,4.8,14.6,12.6c0,6.1-3.7,10.5-9.5,12
				l12.1,18.6h-6.3L357.1,360.3z M346.7,355.5h11.1c6.1,0,9.2-2.5,9.2-7.7c0-5.1-3.1-7.7-9.2-7.7h-11.1V355.5z"/>
			<path id="XMLID_69_" class="st0" d="M422,373.3v5h-31.3v-43.2H421v5h-25.1v13.9h19.4v5h-19.4v14.5L422,373.3L422,373.3z"/>
			<path id="XMLID_65_" class="st0" d="M464.8,366.3h-19.6l-4.5,12h-5.6l16.8-43.2h6.3l16.8,43.2h-5.7L464.8,366.3z M462.9,361.4
				L457,346l-2-6h-0.1l-1.9,5.8l-5.8,15.5H462.9z"/>
			<path id="XMLID_63_" class="st0" d="M531.7,378.3h-5v-27.2l0.6-11.4l0,0l-14.2,38.6h-4.4l-14.2-38.6l0,0l0.6,11.4v27.2h-5v-43.2
				h8l9.5,26.3l3.2,10.8h0.1l3.4-10.7l9.4-26.3h8v43.1H531.7z"/>
			<path id="XMLID_59_" class="st0" d="M605,335.1h15.3c10.2,0,14.8,4.5,14.8,12c0,4.4-2.6,8.3-7.3,9.4l0,0c5.1,1,8.3,5.1,8.3,9.8
				c0,7.3-5.7,12.1-15.9,12.1h-15.3v-43.2H605z M620.5,354.1c6.1,0,9.2-2.3,9.2-7c0-4.7-3.1-7-9.2-7h-10.2v14H620.5z M621.7,373.3
				c6.1,0,9.2-2.6,9.2-7.2s-3.1-7.2-9.2-7.2h-11.4v14.5h11.4V373.3z"/>
			<path id="XMLID_57_" class="st0" d="M687,362.2c0,11.1-6,16.8-16.9,16.8c-10.8,0-16.9-5.7-16.9-16.8v-27h5.3v25.7
				c0,9.1,3.7,13.1,11.7,13.1c8,0,11.7-4.1,11.7-13.1v-25.7h5.3V362.2z"/>
			<path id="XMLID_55_" class="st0" d="M711.7,378.3h-5.3v-43.2h5.3V378.3z"/>
			<path id="XMLID_51_" class="st0" d="M761.2,373.3v5h-30v-43.2h5.3v38.3L761.2,373.3L761.2,373.3z"/>
			<path id="XMLID_47_" class="st0" d="M812.1,356.7c0,13.9-8.2,21.6-21.8,21.6h-13.9v-43.2h13.9
				C803.9,335.1,812.1,342.8,812.1,356.7z M806.5,356.7c0-10.5-5.8-16.7-15.8-16.7h-9.2v33.3h9.2
				C800.7,373.3,806.5,367.2,806.5,356.7z"/>
			<path id="XMLID_43_" class="st0" d="M916.7,356.7c0,13.9-8.2,21.6-21.8,21.6H881v-43.2h13.9C908.5,335.1,916.7,342.8,916.7,356.7
				z M911.1,356.7c0-10.5-5.8-16.7-15.8-16.7h-9.2v33.3h9.2C905.3,373.3,911.1,367.2,911.1,356.7z"/>
			<path id="XMLID_41_" class="st0" d="M939.2,378.3h-5.3v-43.2h5.3V378.3z"/>
			<path id="XMLID_38_" class="st0" d="M989.7,343.7l-4.5,3.7c-2.6-5.7-5.7-7.9-12.1-7.9c-6.9,0-10.7,3.2-10.7,7.3
				c0,4.1,2.9,6.1,12,7.6c11.5,1.9,15.8,5.7,15.8,12.3c0,7.5-6.6,12.3-16.7,12.3c-9.2,0-15.2-3.9-18.3-9.4l4.5-3.7
				c2.3,5,6.7,8.2,13.9,8.2c6.7,0,11.1-2.5,11.1-7.2c0-3.8-2.8-5.8-12-7.5c-11.7-2-15.8-5.6-15.8-12.1c0-6.9,6.1-12.9,16.1-12.9
				C981,334.5,986.4,337.6,989.7,343.7z"/>
			<path id="XMLID_14_" class="st0" d="M1022.6,360.3h-10.4v18h-5.3v-43.2h16.4c8.8,0,14.6,4.8,14.6,12.6c0,6.1-3.7,10.5-9.5,12
				l12.1,18.6h-6.3L1022.6,360.3z M1012.4,355.5h11.1c6.1,0,9.2-2.5,9.2-7.7c0-5.1-3.1-7.7-9.2-7.7h-11.1V355.5z"/>
			<path id="XMLID_12_" class="st0" d="M1089.1,362.2c0,11.1-6,16.8-16.9,16.8c-10.8,0-16.9-5.7-16.9-16.8v-27h5.3v25.7
				c0,9.1,3.7,13.1,11.7,13.1s11.7-4.1,11.7-13.1v-25.7h5.3V362.2z"/>
			<path id="XMLID_9_" class="st0" d="M1138.3,348.2c0,8.2-5.8,13.1-14.5,13.1h-10.1v16.9h-5.3v-43.2h15.2
				C1132.5,335.1,1138.3,340.2,1138.3,348.2z M1132.7,348.2c0-5.4-3.1-8.2-9.8-8.2h-9.2v16.5h9.2
				C1129.7,356.5,1132.7,353.6,1132.7,348.2z"/>
			<path id="XMLID_7_" class="st0" d="M1185.8,340h-15v38.3h-5.3V340h-15v-5h35.4L1185.8,340L1185.8,340z"/>
			<circle id="XMLID_6_" class="st0" cx="568.5" cy="358" r="4.1"/>
			<circle id="XMLID_4_" class="st0" cx="844.3" cy="358" r="4.1"/>
		</g>
	</g>
</g>
</svg>
